<svg xmlns="http://www.w3.org/2000/svg" xmlns:xlink="http://www.w3.org/1999/xlink" width="288" zoomAndPan="magnify" viewBox="0 0 216 215.999996" height="288" preserveAspectRatio="xMidYMid meet" version="1.0"><defs><g/><clipPath id="74f3a7a53d"><path d="M 34 9 L 173.234375 9 L 173.234375 124.300781 L 34 124.300781 Z M 34 9 " clip-rule="nonzero"/></clipPath><clipPath id="df05bb62f2"><path d="M 0 0 L 68.949219 0 L 68.949219 38.949219 L 0 38.949219 Z M 0 0 " clip-rule="nonzero"/></clipPath><clipPath id="58e5eb4760"><path d="M 0 0 L 73.800781 0 L 73.800781 40.117188 L 0 40.117188 Z M 0 0 " clip-rule="nonzero"/></clipPath></defs><g clip-path="url(#74f3a7a53d)"><path fill="#ffde59" d="M 149.976562 104.773438 C 148.8125 103.609375 147.199219 102.886719 145.414062 102.886719 C 143.632812 102.886719 142.019531 103.609375 140.851562 104.773438 C 139.6875 105.941406 138.964844 107.554688 138.964844 109.335938 C 138.964844 111.117188 139.6875 112.734375 140.851562 113.898438 C 142.019531 115.066406 143.632812 115.785156 145.414062 115.785156 C 147.199219 115.785156 148.8125 115.066406 149.976562 113.898438 C 151.144531 112.734375 151.867188 111.117188 151.867188 109.335938 C 151.867188 107.554688 151.144531 105.941406 149.976562 104.773438 M 72.640625 45.53125 C 75.90625 35.871094 81.894531 27.472656 89.6875 21.265625 C 98.664062 14.113281 110.023438 9.839844 122.367188 9.839844 C 134.558594 9.839844 145.789062 14.011719 154.714844 21.011719 C 163.824219 28.152344 170.515625 38.242188 173.355469 49.847656 L 162.691406 52.425781 C 160.449219 43.265625 155.164062 35.296875 147.96875 29.65625 C 140.929688 24.140625 132.042969 20.847656 122.367188 20.847656 C 112.589844 20.847656 103.609375 24.222656 96.527344 29.863281 C 90.507812 34.65625 85.851562 41.082031 83.234375 48.457031 C 84.46875 49.023438 85.660156 49.652344 86.808594 50.351562 C 92.230469 53.632812 96.683594 58.359375 99.632812 63.992188 L 89.914062 69.066406 C 87.894531 65.210938 84.847656 61.972656 81.132812 59.722656 C 77.578125 57.570312 73.371094 56.332031 68.839844 56.332031 C 62.277344 56.332031 56.339844 58.988281 52.042969 63.285156 C 47.746094 67.582031 45.085938 73.519531 45.085938 80.078125 C 45.085938 86.640625 47.746094 92.578125 52.042969 96.878906 C 56.339844 101.175781 62.277344 103.832031 68.839844 103.832031 L 131.773438 103.832031 C 132.519531 101.984375 133.628906 100.324219 135.015625 98.9375 C 137.675781 96.277344 141.355469 94.628906 145.414062 94.628906 C 149.472656 94.628906 153.152344 96.277344 155.8125 98.9375 C 158.476562 101.597656 160.125 105.277344 160.125 109.335938 C 160.125 113.398438 158.476562 117.074219 155.8125 119.734375 C 153.152344 122.398438 149.472656 124.042969 145.414062 124.042969 C 141.355469 124.042969 137.675781 122.398438 135.015625 119.734375 C 133.628906 118.347656 132.519531 116.6875 131.773438 114.839844 L 68.839844 114.839844 C 59.242188 114.839844 50.550781 110.949219 44.261719 104.660156 C 37.96875 98.371094 34.078125 89.675781 34.078125 80.082031 C 34.078125 70.484375 37.96875 61.792969 44.261719 55.503906 C 50.550781 49.210938 59.242188 45.320312 68.839844 45.320312 C 70.121094 45.320312 71.390625 45.390625 72.640625 45.53125 Z M 72.640625 45.53125 " fill-opacity="1" fill-rule="nonzero"/></g><g clip-path="url(#df05bb62f2)"><path fill="#ffde59" d="M 30.71875 0.195312 L 30.722656 0.191406 L 30.746094 0.191406 C 30.859375 0.175781 30.972656 0.167969 31.089844 0.15625 L 31.105469 0.15625 L 31.273438 0.144531 L 31.285156 0.140625 L 31.457031 0.128906 L 31.46875 0.128906 L 31.640625 0.121094 L 31.652344 0.117188 L 31.828125 0.109375 L 31.835938 0.109375 L 32.011719 0.101562 L 32.019531 0.101562 L 32.199219 0.0976562 L 32.203125 0.0976562 L 32.386719 0.09375 L 32.761719 0.09375 L 32.941406 0.0976562 L 32.945312 0.0976562 L 33.125 0.101562 L 33.132812 0.101562 L 33.3125 0.109375 L 33.320312 0.109375 L 33.496094 0.117188 L 33.507812 0.121094 L 33.675781 0.128906 L 33.691406 0.128906 L 33.859375 0.140625 L 33.875 0.144531 L 34.042969 0.15625 L 34.058594 0.15625 C 34.171875 0.167969 34.289062 0.175781 34.402344 0.191406 L 34.421875 0.191406 L 34.429688 0.195312 C 37.707031 0.546875 40.703125 1.835938 43.148438 3.78125 C 45.609375 5.742188 47.511719 8.371094 48.582031 11.386719 C 48.082031 11.617188 47.59375 11.878906 47.121094 12.160156 C 44.90625 13.503906 43.082031 15.441406 41.875 17.742188 L 45.851562 19.820312 C 46.675781 18.238281 47.925781 16.914062 49.445312 15.996094 C 50.898438 15.113281 52.621094 14.605469 54.472656 14.605469 C 57.15625 14.605469 59.589844 15.695312 61.34375 17.453125 C 63.101562 19.210938 64.1875 21.640625 64.1875 24.324219 C 64.1875 27.007812 63.101562 29.4375 61.34375 31.195312 C 59.585938 32.953125 57.15625 34.039062 54.472656 34.039062 L 10.671875 34.039062 C 7.992188 34.039062 5.558594 32.953125 3.800781 31.195312 C 2.042969 29.4375 0.957031 27.007812 0.957031 24.324219 C 0.957031 21.640625 2.042969 19.210938 3.800781 17.453125 C 5.558594 15.695312 7.992188 14.605469 10.671875 14.605469 C 12.527344 14.605469 14.25 15.113281 15.703125 15.996094 C 17.222656 16.914062 18.46875 18.238281 19.296875 19.820312 L 23.273438 17.742188 C 22.066406 15.4375 20.242188 13.503906 18.027344 12.160156 C 17.554688 11.875 17.066406 11.617188 16.5625 11.386719 C 17.636719 8.371094 19.539062 5.742188 22 3.78125 C 24.441406 1.835938 27.441406 0.550781 30.71875 0.195312 M 52.917969 10.191406 C 51.582031 6.238281 49.128906 2.804688 45.945312 0.261719 C 42.78125 -2.257812 38.898438 -3.902344 34.652344 -4.3125 L 34.449219 -4.332031 L 34.425781 -4.332031 L 34.195312 -4.351562 L 33.980469 -4.363281 L 33.964844 -4.367188 L 33.75 -4.378906 L 33.734375 -4.378906 L 33.515625 -4.390625 L 33.503906 -4.390625 L 33.28125 -4.398438 L 33.273438 -4.398438 L 33.046875 -4.40625 L 32.808594 -4.40625 L 32.574219 -4.410156 L 32.335938 -4.410156 L 32.109375 -4.40625 L 32.101562 -4.40625 L 31.875 -4.398438 L 31.867188 -4.398438 L 31.644531 -4.390625 L 31.632812 -4.390625 L 31.414062 -4.378906 L 31.398438 -4.378906 L 31.179688 -4.367188 L 31.164062 -4.367188 L 30.953125 -4.351562 L 30.722656 -4.332031 L 30.699219 -4.332031 L 30.496094 -4.3125 C 26.25 -3.902344 22.367188 -2.253906 19.203125 0.261719 C 16.015625 2.804688 13.5625 6.238281 12.230469 10.191406 C 11.71875 10.132812 11.199219 10.105469 10.671875 10.105469 C 6.746094 10.105469 3.191406 11.695312 0.617188 14.269531 C -1.953125 16.84375 -3.546875 20.398438 -3.546875 24.324219 C -3.546875 28.25 -1.953125 31.804688 0.617188 34.378906 C 3.191406 36.953125 6.746094 38.542969 10.671875 38.542969 L 54.472656 38.542969 C 58.398438 38.542969 61.953125 36.953125 64.527344 34.378906 C 67.101562 31.804688 68.695312 28.25 68.695312 24.324219 C 68.695312 20.398438 67.101562 16.84375 64.527344 14.269531 C 61.953125 11.695312 58.398438 10.105469 54.472656 10.105469 C 53.949219 10.105469 53.429688 10.132812 52.917969 10.191406 Z M 52.917969 10.191406 " fill-opacity="1" fill-rule="nonzero"/></g><g clip-path="url(#58e5eb4760)"><path fill="#ffffff" d="M -3.574219 -9.453125 L 73.882812 -9.453125 L 73.882812 40.117188 L -3.574219 40.117188 Z M -3.574219 -9.453125 " fill-opacity="1" fill-rule="nonzero"/></g><path fill="#004aad" d="M 17.621094 176.171875 C 14.828125 176.171875 12.359375 175.59375 10.214844 174.4375 C 8.078125 173.273438 6.410156 171.652344 5.214844 169.578125 C 4.015625 167.496094 3.417969 165.09375 3.417969 162.375 C 3.417969 159.648438 4.019531 157.257812 5.230469 155.203125 C 6.449219 153.140625 8.125 151.53125 10.261719 150.375 C 12.40625 149.210938 14.890625 148.625 17.714844 148.625 C 20.703125 148.625 23.28125 149.292969 25.449219 150.625 C 27.625 151.949219 29.285156 153.808594 30.433594 156.203125 C 31.578125 158.589844 32.066406 161.375 31.902344 164.5625 L 10.949219 164.5625 C 11.3125 166.355469 12.105469 167.726562 13.324219 168.671875 C 14.550781 169.621094 16.03125 170.09375 17.761719 170.09375 C 19.019531 170.09375 20.171875 169.855469 21.214844 169.375 C 22.265625 168.886719 23.109375 168.214844 23.746094 167.359375 L 31.402344 167.359375 C 30.277344 170.109375 28.5 172.265625 26.074219 173.828125 C 23.65625 175.390625 20.839844 176.171875 17.621094 176.171875 Z M 10.996094 159.78125 L 24.589844 159.78125 C 24.152344 158.1875 23.34375 156.9375 22.167969 156.03125 C 20.988281 155.117188 19.519531 154.65625 17.761719 154.65625 C 16.105469 154.65625 14.667969 155.117188 13.449219 156.03125 C 12.238281 156.9375 11.421875 158.1875 10.996094 159.78125 Z M 10.996094 159.78125 " fill-opacity="1" fill-rule="nonzero"/><path fill="#004aad" d="M 43.597656 175.46875 L 32.753906 149.328125 L 41.019531 149.328125 L 43.957031 157.546875 L 47.441406 166.40625 L 50.878906 157.546875 L 53.863281 149.328125 L 62.082031 149.328125 L 51.175781 175.46875 Z M 43.597656 175.46875 " fill-opacity="1" fill-rule="nonzero"/><path fill="#004aad" d="M 77.171875 176.171875 C 74.378906 176.171875 71.910156 175.59375 69.765625 174.4375 C 67.628906 173.273438 65.960938 171.652344 64.765625 169.578125 C 63.566406 167.496094 62.96875 165.09375 62.96875 162.375 C 62.96875 159.648438 63.570312 157.257812 64.78125 155.203125 C 66 153.140625 67.675781 151.53125 69.8125 150.375 C 71.957031 149.210938 74.441406 148.625 77.265625 148.625 C 80.253906 148.625 82.832031 149.292969 85 150.625 C 87.175781 151.949219 88.835938 153.808594 89.984375 156.203125 C 91.128906 158.589844 91.617188 161.375 91.453125 164.5625 L 70.5 164.5625 C 70.863281 166.355469 71.65625 167.726562 72.875 168.671875 C 74.101562 169.621094 75.582031 170.09375 77.3125 170.09375 C 78.570312 170.09375 79.722656 169.855469 80.765625 169.375 C 81.816406 168.886719 82.660156 168.214844 83.296875 167.359375 L 90.953125 167.359375 C 89.828125 170.109375 88.050781 172.265625 85.625 173.828125 C 83.207031 175.390625 80.390625 176.171875 77.171875 176.171875 Z M 70.546875 159.78125 L 84.140625 159.78125 C 83.703125 158.1875 82.894531 156.9375 81.71875 156.03125 C 80.539062 155.117188 79.070312 154.65625 77.3125 154.65625 C 75.65625 154.65625 74.21875 155.117188 73 156.03125 C 71.789062 156.9375 70.972656 158.1875 70.546875 159.78125 Z M 70.546875 159.78125 " fill-opacity="1" fill-rule="nonzero"/><path fill="#004aad" d="M 95.632812 175.46875 L 95.632812 149.328125 L 101.257812 149.328125 L 102.257812 152.8125 C 103.121094 151.585938 104.183594 150.699219 105.445312 150.15625 C 106.703125 149.605469 108.296875 149.328125 110.226562 149.328125 L 113.070312 149.328125 L 113.070312 156.203125 L 110.179688 156.203125 C 108.023438 156.203125 106.320312 156.789062 105.070312 157.953125 C 103.828125 159.109375 103.210938 161.101562 103.210938 163.921875 L 103.210938 175.46875 Z M 95.632812 175.46875 " fill-opacity="1" fill-rule="nonzero"/><path fill="#004aad" d="M 117.152344 185.421875 L 117.152344 178.90625 L 120.136719 178.90625 C 121.699219 178.90625 122.816406 178.660156 123.496094 178.171875 C 124.171875 177.691406 124.730469 176.804688 125.167969 175.515625 L 125.464844 174.625 L 113.714844 149.328125 L 122.074219 149.328125 L 129.089844 165.515625 L 131.480469 158.84375 L 134.980469 149.328125 L 143.089844 149.328125 L 131.433594 178.5625 C 130.734375 180.351562 129.9375 181.742188 129.042969 182.734375 C 128.144531 183.734375 127.03125 184.429688 125.699219 184.828125 C 124.375 185.222656 122.703125 185.421875 120.683594 185.421875 Z M 117.152344 185.421875 " fill-opacity="1" fill-rule="nonzero"/><path fill="#004aad" d="M 142.445312 175.46875 L 156.289062 140.609375 L 164.054688 140.609375 L 177.898438 175.46875 L 169.429688 175.46875 L 167.085938 169.4375 L 153.242188 169.4375 L 150.898438 175.46875 Z M 155.289062 163.21875 L 165.101562 163.21875 L 160.164062 150.46875 Z M 155.289062 163.21875 " fill-opacity="1" fill-rule="nonzero"/><path fill="#004aad" d="M 180.628906 175.46875 L 180.628906 149.328125 L 188.207031 149.328125 L 188.207031 175.46875 Z M 179.535156 140.859375 C 179.535156 139.464844 179.988281 138.328125 180.894531 137.453125 C 181.808594 136.570312 182.980469 136.125 184.410156 136.125 C 185.878906 136.125 187.058594 136.570312 187.957031 137.453125 C 188.851562 138.328125 189.300781 139.464844 189.300781 140.859375 C 189.300781 142.257812 188.851562 143.398438 187.957031 144.28125 C 187.058594 145.15625 185.878906 145.59375 184.410156 145.59375 C 182.980469 145.59375 181.808594 145.15625 180.894531 144.28125 C 179.988281 143.398438 179.535156 142.257812 179.535156 140.859375 Z M 179.535156 140.859375 " fill-opacity="1" fill-rule="nonzero"/><path fill="#004aad" d="M 194.273438 175.46875 L 194.273438 149.328125 L 199.898438 149.328125 L 200.898438 152.8125 C 201.761719 151.585938 202.824219 150.699219 204.085938 150.15625 C 205.34375 149.605469 206.9375 149.328125 208.867188 149.328125 L 211.710938 149.328125 L 211.710938 156.203125 L 208.820312 156.203125 C 206.664062 156.203125 204.960938 156.789062 203.710938 157.953125 C 202.46875 159.109375 201.851562 161.101562 201.851562 163.921875 L 201.851562 175.46875 Z M 194.273438 175.46875 " fill-opacity="1" fill-rule="nonzero"/><g fill="#004aad" fill-opacity="1"><g transform="translate(68.874777, 206.071276)"><g><path d="M 1.4375 2.75 L 0.5 2.75 L 2.140625 -0.796875 L 0.109375 -4.84375 L 0.984375 -4.84375 L 2.546875 -1.59375 L 3.921875 -4.84375 L 4.78125 -4.84375 Z M 1.4375 2.75 "/></g></g></g><g fill="#004aad" fill-opacity="1"><g transform="translate(73.216469, 206.071276)"><g><path d="M 4.78125 -2.4375 C 4.78125 -2.925781 4.609375 -3.34375 4.265625 -3.6875 C 3.921875 -4.03125 3.507812 -4.203125 3.03125 -4.203125 C 2.539062 -4.203125 2.125 -4.03125 1.78125 -3.6875 C 1.4375 -3.34375 1.265625 -2.925781 1.265625 -2.4375 C 1.265625 -1.96875 1.4375 -1.554688 1.78125 -1.203125 C 2.125 -0.859375 2.539062 -0.6875 3.03125 -0.6875 C 3.507812 -0.6875 3.921875 -0.859375 4.265625 -1.203125 C 4.609375 -1.554688 4.78125 -1.96875 4.78125 -2.4375 Z M 5.5625 -2.4375 C 5.5625 -1.738281 5.3125 -1.144531 4.8125 -0.65625 C 4.3125 -0.164062 3.71875 0.078125 3.03125 0.078125 C 2.332031 0.078125 1.738281 -0.164062 1.25 -0.65625 C 0.75 -1.144531 0.5 -1.738281 0.5 -2.4375 C 0.5 -3.132812 0.75 -3.734375 1.25 -4.234375 C 1.738281 -4.722656 2.332031 -4.96875 3.03125 -4.96875 C 3.71875 -4.96875 4.3125 -4.722656 4.8125 -4.234375 C 5.3125 -3.734375 5.5625 -3.132812 5.5625 -2.4375 Z M 5.5625 -2.4375 "/></g></g></g><g fill="#004aad" fill-opacity="1"><g transform="translate(78.932197, 206.071276)"><g><path d="M 4.171875 -0.828125 C 3.804688 -0.210938 3.265625 0.09375 2.546875 0.09375 C 2.003906 0.09375 1.582031 -0.0820312 1.28125 -0.4375 C 0.976562 -0.800781 0.828125 -1.257812 0.828125 -1.8125 L 0.828125 -4.84375 L 1.59375 -4.84375 L 1.59375 -1.8125 C 1.59375 -1.5 1.664062 -1.234375 1.8125 -1.015625 C 1.957031 -0.785156 2.191406 -0.671875 2.515625 -0.671875 C 3.117188 -0.671875 3.546875 -0.863281 3.796875 -1.25 C 4.046875 -1.613281 4.171875 -2.132812 4.171875 -2.8125 L 4.171875 -4.84375 L 4.9375 -4.84375 L 4.9375 0 L 4.171875 0 Z M 4.171875 -0.828125 "/></g></g></g><g fill="#004aad" fill-opacity="1"><g transform="translate(84.197233, 206.071276)"><g><path d="M 3.3125 -3.84375 C 3.132812 -4 2.941406 -4.078125 2.734375 -4.078125 C 2.535156 -4.078125 2.367188 -4.023438 2.234375 -3.921875 C 2.085938 -3.796875 1.96875 -3.65625 1.875 -3.5 C 1.6875 -3.175781 1.59375 -2.816406 1.59375 -2.421875 L 1.59375 0 L 0.828125 0 L 0.828125 -4.84375 L 1.59375 -4.84375 L 1.59375 -3.84375 L 1.625 -4.03125 C 1.882812 -4.632812 2.285156 -4.9375 2.828125 -4.9375 C 2.992188 -4.9375 3.15625 -4.90625 3.3125 -4.84375 Z M 3.3125 -3.84375 "/></g></g></g><g fill="#004aad" fill-opacity="1"><g transform="translate(87.285809, 206.071276)"><g/></g></g><g fill="#004aad" fill-opacity="1"><g transform="translate(89.923705, 206.071276)"><g><path d="M 5.5625 -2.53125 L 5.5625 -2.125 L 1.296875 -2.125 C 1.367188 -1.707031 1.570312 -1.363281 1.90625 -1.09375 C 2.238281 -0.820312 2.613281 -0.6875 3.03125 -0.6875 C 3.300781 -0.6875 3.566406 -0.753906 3.828125 -0.890625 C 4.078125 -1.015625 4.285156 -1.191406 4.453125 -1.421875 L 5.328125 -1.421875 C 5.128906 -0.953125 4.820312 -0.585938 4.40625 -0.328125 C 3.988281 -0.0546875 3.566406 0.078125 3.140625 0.078125 C 2.710938 0.078125 2.347656 0.0078125 2.046875 -0.125 C 1.734375 -0.25 1.46875 -0.425781 1.25 -0.65625 C 0.75 -1.144531 0.5 -1.738281 0.5 -2.4375 C 0.5 -3.132812 0.75 -3.734375 1.25 -4.234375 C 1.738281 -4.722656 2.332031 -4.96875 3.03125 -4.96875 C 3.695312 -4.96875 4.285156 -4.726562 4.796875 -4.25 C 5.304688 -3.769531 5.5625 -3.195312 5.5625 -2.53125 Z M 4.734375 -2.78125 C 4.648438 -3.195312 4.445312 -3.539062 4.125 -3.8125 C 3.800781 -4.070312 3.4375 -4.203125 3.03125 -4.203125 C 2.394531 -4.203125 1.898438 -3.921875 1.546875 -3.359375 C 1.429688 -3.179688 1.351562 -2.988281 1.3125 -2.78125 Z M 4.734375 -2.78125 "/></g></g></g><g fill="#004aad" fill-opacity="1"><g transform="translate(95.584467, 206.071276)"><g><path d="M 2.34375 0.46875 L 0.109375 -4.84375 L 0.953125 -4.84375 L 2.34375 -1.25 L 3.734375 -4.84375 L 4.5625 -4.84375 Z M 2.34375 0.46875 "/></g></g></g><g fill="#004aad" fill-opacity="1"><g transform="translate(99.926161, 206.071276)"><g><path d="M 5.5625 -2.53125 L 5.5625 -2.125 L 1.296875 -2.125 C 1.367188 -1.707031 1.570312 -1.363281 1.90625 -1.09375 C 2.238281 -0.820312 2.613281 -0.6875 3.03125 -0.6875 C 3.300781 -0.6875 3.566406 -0.753906 3.828125 -0.890625 C 4.078125 -1.015625 4.285156 -1.191406 4.453125 -1.421875 L 5.328125 -1.421875 C 5.128906 -0.953125 4.820312 -0.585938 4.40625 -0.328125 C 3.988281 -0.0546875 3.566406 0.078125 3.140625 0.078125 C 2.710938 0.078125 2.347656 0.0078125 2.046875 -0.125 C 1.734375 -0.25 1.46875 -0.425781 1.25 -0.65625 C 0.75 -1.144531 0.5 -1.738281 0.5 -2.4375 C 0.5 -3.132812 0.75 -3.734375 1.25 -4.234375 C 1.738281 -4.722656 2.332031 -4.96875 3.03125 -4.96875 C 3.695312 -4.96875 4.285156 -4.726562 4.796875 -4.25 C 5.304688 -3.769531 5.5625 -3.195312 5.5625 -2.53125 Z M 4.734375 -2.78125 C 4.648438 -3.195312 4.445312 -3.539062 4.125 -3.8125 C 3.800781 -4.070312 3.4375 -4.203125 3.03125 -4.203125 C 2.394531 -4.203125 1.898438 -3.921875 1.546875 -3.359375 C 1.429688 -3.179688 1.351562 -2.988281 1.3125 -2.78125 Z M 4.734375 -2.78125 "/></g></g></g><g fill="#004aad" fill-opacity="1"><g transform="translate(105.586923, 206.071276)"><g><path d="M 3.3125 -3.84375 C 3.132812 -4 2.941406 -4.078125 2.734375 -4.078125 C 2.535156 -4.078125 2.367188 -4.023438 2.234375 -3.921875 C 2.085938 -3.796875 1.96875 -3.65625 1.875 -3.5 C 1.6875 -3.175781 1.59375 -2.816406 1.59375 -2.421875 L 1.59375 0 L 0.828125 0 L 0.828125 -4.84375 L 1.59375 -4.84375 L 1.59375 -3.84375 L 1.625 -4.03125 C 1.882812 -4.632812 2.285156 -4.9375 2.828125 -4.9375 C 2.992188 -4.9375 3.15625 -4.90625 3.3125 -4.84375 Z M 3.3125 -3.84375 "/></g></g></g><g fill="#004aad" fill-opacity="1"><g transform="translate(108.6755, 206.071276)"><g><path d="M 1.4375 2.75 L 0.5 2.75 L 2.140625 -0.796875 L 0.109375 -4.84375 L 0.984375 -4.84375 L 2.546875 -1.59375 L 3.921875 -4.84375 L 4.78125 -4.84375 Z M 1.4375 2.75 "/></g></g></g><g fill="#004aad" fill-opacity="1"><g transform="translate(113.017194, 206.071276)"><g><path d="M 4.671875 -2.421875 C 4.671875 -2.890625 4.507812 -3.300781 4.1875 -3.65625 C 3.863281 -4.007812 3.457031 -4.1875 2.96875 -4.1875 C 2.488281 -4.1875 2.085938 -4.007812 1.765625 -3.65625 C 1.429688 -3.300781 1.265625 -2.890625 1.265625 -2.421875 C 1.265625 -1.953125 1.429688 -1.539062 1.765625 -1.1875 C 2.085938 -0.832031 2.488281 -0.65625 2.96875 -0.65625 C 3.457031 -0.65625 3.863281 -0.832031 4.1875 -1.1875 C 4.507812 -1.539062 4.671875 -1.953125 4.671875 -2.421875 Z M 5.4375 0 L 4.671875 0 L 4.671875 -0.828125 C 4.628906 -0.765625 4.585938 -0.707031 4.546875 -0.65625 C 4.078125 -0.144531 3.507812 0.109375 2.84375 0.109375 C 2.175781 0.109375 1.617188 -0.144531 1.171875 -0.65625 C 0.722656 -1.15625 0.5 -1.742188 0.5 -2.421875 C 0.5 -3.097656 0.722656 -3.6875 1.171875 -4.1875 C 1.617188 -4.695312 2.175781 -4.953125 2.84375 -4.953125 C 3.507812 -4.953125 4.078125 -4.695312 4.546875 -4.1875 C 4.585938 -4.132812 4.628906 -4.078125 4.671875 -4.015625 L 4.671875 -8.25 L 5.4375 -8.25 Z M 5.4375 0 "/></g></g></g><g fill="#004aad" fill-opacity="1"><g transform="translate(118.952763, 206.071276)"><g><path d="M 4.671875 -2.421875 C 4.671875 -2.890625 4.507812 -3.300781 4.1875 -3.65625 C 3.863281 -4.007812 3.457031 -4.1875 2.96875 -4.1875 C 2.488281 -4.1875 2.085938 -4.007812 1.765625 -3.65625 C 1.429688 -3.300781 1.265625 -2.890625 1.265625 -2.421875 C 1.265625 -1.953125 1.429688 -1.539062 1.765625 -1.1875 C 2.085938 -0.832031 2.488281 -0.65625 2.96875 -0.65625 C 3.457031 -0.65625 3.863281 -0.832031 4.1875 -1.1875 C 4.507812 -1.539062 4.671875 -1.953125 4.671875 -2.421875 Z M 5.4375 0 L 4.671875 0 L 4.671875 -0.828125 C 4.628906 -0.765625 4.585938 -0.707031 4.546875 -0.65625 C 4.078125 -0.144531 3.507812 0.109375 2.84375 0.109375 C 2.175781 0.109375 1.617188 -0.144531 1.171875 -0.65625 C 0.722656 -1.15625 0.5 -1.742188 0.5 -2.421875 C 0.5 -3.097656 0.722656 -3.6875 1.171875 -4.1875 C 1.617188 -4.695312 2.175781 -4.953125 2.84375 -4.953125 C 3.507812 -4.953125 4.078125 -4.695312 4.546875 -4.1875 C 4.585938 -4.132812 4.628906 -4.078125 4.671875 -4.015625 L 4.671875 -4.84375 L 5.4375 -4.84375 Z M 5.4375 0 "/></g></g></g><g fill="#004aad" fill-opacity="1"><g transform="translate(124.888333, 206.071276)"><g><path d="M 1.4375 2.75 L 0.5 2.75 L 2.140625 -0.796875 L 0.109375 -4.84375 L 0.984375 -4.84375 L 2.546875 -1.59375 L 3.921875 -4.84375 L 4.78125 -4.84375 Z M 1.4375 2.75 "/></g></g></g><g fill="#004aad" fill-opacity="1"><g transform="translate(129.230026, 206.071276)"><g/></g></g><g fill="#004aad" fill-opacity="1"><g transform="translate(131.867924, 206.071276)"><g><path d="M 4.671875 -2.421875 C 4.671875 -2.890625 4.507812 -3.300781 4.1875 -3.65625 C 3.863281 -4.007812 3.457031 -4.1875 2.96875 -4.1875 C 2.488281 -4.1875 2.085938 -4.007812 1.765625 -3.65625 C 1.429688 -3.300781 1.265625 -2.890625 1.265625 -2.421875 C 1.265625 -1.953125 1.429688 -1.539062 1.765625 -1.1875 C 2.085938 -0.832031 2.488281 -0.65625 2.96875 -0.65625 C 3.457031 -0.65625 3.863281 -0.832031 4.1875 -1.1875 C 4.507812 -1.539062 4.671875 -1.953125 4.671875 -2.421875 Z M 5.4375 0 L 4.671875 0 L 4.671875 -0.828125 C 4.628906 -0.765625 4.585938 -0.707031 4.546875 -0.65625 C 4.078125 -0.144531 3.507812 0.109375 2.84375 0.109375 C 2.175781 0.109375 1.617188 -0.144531 1.171875 -0.65625 C 0.722656 -1.15625 0.5 -1.742188 0.5 -2.421875 C 0.5 -3.097656 0.722656 -3.6875 1.171875 -4.1875 C 1.617188 -4.695312 2.175781 -4.953125 2.84375 -4.953125 C 3.507812 -4.953125 4.078125 -4.695312 4.546875 -4.1875 C 4.585938 -4.132812 4.628906 -4.078125 4.671875 -4.015625 L 4.671875 -4.84375 L 5.4375 -4.84375 Z M 5.4375 0 "/></g></g></g><g fill="#004aad" fill-opacity="1"><g transform="translate(137.803493, 206.071276)"><g><path d="M 1.609375 -6.515625 C 1.703125 -6.421875 1.75 -6.304688 1.75 -6.171875 C 1.75 -6.035156 1.703125 -5.914062 1.609375 -5.8125 C 1.515625 -5.71875 1.398438 -5.671875 1.265625 -5.671875 C 1.128906 -5.671875 1.007812 -5.71875 0.90625 -5.8125 C 0.8125 -5.914062 0.765625 -6.035156 0.765625 -6.171875 C 0.765625 -6.304688 0.8125 -6.421875 0.90625 -6.515625 C 1.007812 -6.609375 1.128906 -6.65625 1.265625 -6.65625 C 1.398438 -6.65625 1.515625 -6.609375 1.609375 -6.515625 Z M 1.65625 0 L 0.875 0 L 0.875 -4.84375 L 1.65625 -4.84375 Z M 1.65625 0 "/></g></g></g><g fill="#004aad" fill-opacity="1"><g transform="translate(139.990711, 206.071276)"><g><path d="M 3.3125 -3.84375 C 3.132812 -4 2.941406 -4.078125 2.734375 -4.078125 C 2.535156 -4.078125 2.367188 -4.023438 2.234375 -3.921875 C 2.085938 -3.796875 1.96875 -3.65625 1.875 -3.5 C 1.6875 -3.175781 1.59375 -2.816406 1.59375 -2.421875 L 1.59375 0 L 0.828125 0 L 0.828125 -4.84375 L 1.59375 -4.84375 L 1.59375 -3.84375 L 1.625 -4.03125 C 1.882812 -4.632812 2.285156 -4.9375 2.828125 -4.9375 C 2.992188 -4.9375 3.15625 -4.90625 3.3125 -4.84375 Z M 3.3125 -3.84375 "/></g></g></g><g fill="#004aad" fill-opacity="1"><g transform="translate(143.079288, 206.071276)"><g><path d="M 1.46875 0.109375 C 1.289062 0.109375 1.140625 0.046875 1.015625 -0.078125 C 0.890625 -0.191406 0.828125 -0.332031 0.828125 -0.5 C 0.828125 -0.675781 0.890625 -0.828125 1.015625 -0.953125 C 1.140625 -1.078125 1.289062 -1.140625 1.46875 -1.140625 C 1.644531 -1.140625 1.796875 -1.078125 1.921875 -0.953125 C 2.046875 -0.828125 2.109375 -0.679688 2.109375 -0.515625 C 2.109375 -0.335938 2.039062 -0.191406 1.90625 -0.078125 C 1.78125 0.046875 1.632812 0.109375 1.46875 0.109375 Z M 1.46875 0.109375 "/></g></g></g></svg>