<svg xmlns="http://www.w3.org/2000/svg" xmlns:xlink="http://www.w3.org/1999/xlink" width="500" zoomAndPan="magnify" viewBox="0 0 375 374.999991" height="500" preserveAspectRatio="xMidYMid meet" version="1.0"><defs><g/><clipPath id="1908999efb"><path d="M 114 89 L 253.285156 89 L 253.285156 204.351562 L 114 204.351562 Z M 114 89 " clip-rule="nonzero"/></clipPath><clipPath id="4eb028902a"><path d="M 76.476562 75.6875 L 149 75.6875 L 149 119 L 76.476562 119 Z M 76.476562 75.6875 " clip-rule="nonzero"/></clipPath><clipPath id="4e1218b679"><path d="M 76.476562 70.597656 L 153.851562 70.597656 L 153.851562 120.167969 L 76.476562 120.167969 Z M 76.476562 70.597656 " clip-rule="nonzero"/></clipPath></defs><g clip-path="url(#1908999efb)"><path fill="#ffde59" d="M 230.027344 184.824219 C 228.863281 183.660156 227.25 182.9375 225.464844 182.9375 C 223.683594 182.9375 222.070312 183.660156 220.902344 184.824219 C 219.738281 185.992188 219.015625 187.605469 219.015625 189.386719 C 219.015625 191.167969 219.738281 192.785156 220.902344 193.949219 C 222.070312 195.117188 223.683594 195.835938 225.464844 195.835938 C 227.25 195.835938 228.863281 195.117188 230.027344 193.949219 C 231.195312 192.785156 231.917969 191.167969 231.917969 189.386719 C 231.917969 187.605469 231.195312 185.992188 230.027344 184.824219 M 152.691406 125.582031 C 155.957031 115.921875 161.945312 107.523438 169.738281 101.316406 C 178.714844 94.164062 190.074219 89.890625 202.417969 89.890625 C 214.609375 89.890625 225.839844 94.0625 234.765625 101.0625 C 243.875 108.203125 250.566406 118.292969 253.40625 129.898438 L 242.742188 132.476562 C 240.5 123.316406 235.214844 115.347656 228.019531 109.707031 C 220.980469 104.191406 212.09375 100.898438 202.417969 100.898438 C 192.640625 100.898438 183.660156 104.273438 176.578125 109.914062 C 170.558594 114.707031 165.902344 121.132812 163.285156 128.507812 C 164.519531 129.074219 165.710938 129.703125 166.859375 130.402344 C 172.28125 133.683594 176.734375 138.410156 179.683594 144.042969 L 169.964844 149.117188 C 167.945312 145.261719 164.898438 142.023438 161.183594 139.773438 C 157.628906 137.621094 153.421875 136.382812 148.890625 136.382812 C 142.328125 136.382812 136.390625 139.039062 132.09375 143.335938 C 127.796875 147.632812 125.136719 153.570312 125.136719 160.128906 C 125.136719 166.691406 127.796875 172.628906 132.09375 176.929688 C 136.390625 181.226562 142.328125 183.882812 148.890625 183.882812 L 211.824219 183.882812 C 212.570312 182.035156 213.679688 180.375 215.066406 178.988281 C 217.726562 176.328125 221.40625 174.679688 225.464844 174.679688 C 229.523438 174.679688 233.203125 176.328125 235.863281 178.988281 C 238.527344 181.648438 240.175781 185.328125 240.175781 189.386719 C 240.175781 193.449219 238.527344 197.125 235.863281 199.785156 C 233.203125 202.449219 229.523438 204.09375 225.464844 204.09375 C 221.40625 204.09375 217.726562 202.449219 215.066406 199.785156 C 213.679688 198.398438 212.570312 196.738281 211.824219 194.890625 L 148.890625 194.890625 C 139.292969 194.890625 130.601562 191 124.3125 184.710938 C 118.019531 178.421875 114.128906 169.726562 114.128906 160.132812 C 114.128906 150.535156 118.019531 141.84375 124.3125 135.554688 C 130.601562 129.261719 139.292969 125.371094 148.890625 125.371094 C 150.171875 125.371094 151.441406 125.441406 152.691406 125.582031 Z M 152.691406 125.582031 " fill-opacity="1" fill-rule="nonzero"/></g><g clip-path="url(#4eb028902a)"><path fill="#ffde59" d="M 110.769531 80.246094 L 110.773438 80.242188 L 110.796875 80.242188 C 110.910156 80.226562 111.023438 80.21875 111.140625 80.207031 L 111.15625 80.207031 L 111.324219 80.195312 L 111.335938 80.191406 L 111.507812 80.179688 L 111.519531 80.179688 L 111.691406 80.171875 L 111.703125 80.167969 L 111.878906 80.160156 L 111.886719 80.160156 L 112.0625 80.152344 L 112.070312 80.152344 L 112.25 80.148438 L 112.253906 80.148438 L 112.4375 80.144531 L 112.8125 80.144531 L 112.992188 80.148438 L 112.996094 80.148438 L 113.175781 80.152344 L 113.183594 80.152344 L 113.363281 80.160156 L 113.371094 80.160156 L 113.546875 80.167969 L 113.558594 80.171875 L 113.726562 80.179688 L 113.742188 80.179688 L 113.910156 80.191406 L 113.925781 80.195312 L 114.09375 80.207031 L 114.109375 80.207031 C 114.222656 80.21875 114.339844 80.226562 114.453125 80.242188 L 114.472656 80.242188 L 114.480469 80.246094 C 117.757812 80.597656 120.753906 81.886719 123.199219 83.832031 C 125.660156 85.792969 127.5625 88.421875 128.632812 91.4375 C 128.132812 91.667969 127.644531 91.929688 127.171875 92.210938 C 124.957031 93.554688 123.132812 95.492188 121.925781 97.792969 L 125.902344 99.871094 C 126.726562 98.289062 127.976562 96.964844 129.496094 96.046875 C 130.949219 95.164062 132.671875 94.65625 134.523438 94.65625 C 137.207031 94.65625 139.640625 95.746094 141.394531 97.503906 C 143.152344 99.261719 144.238281 101.691406 144.238281 104.375 C 144.238281 107.058594 143.152344 109.488281 141.394531 111.246094 C 139.636719 113.003906 137.207031 114.089844 134.523438 114.089844 L 90.722656 114.089844 C 88.042969 114.089844 85.609375 113.003906 83.851562 111.246094 C 82.09375 109.488281 81.007812 107.058594 81.007812 104.375 C 81.007812 101.691406 82.09375 99.261719 83.851562 97.503906 C 85.609375 95.746094 88.042969 94.65625 90.722656 94.65625 C 92.578125 94.65625 94.300781 95.164062 95.753906 96.046875 C 97.273438 96.964844 98.519531 98.289062 99.347656 99.871094 L 103.324219 97.792969 C 102.117188 95.488281 100.292969 93.554688 98.078125 92.210938 C 97.605469 91.925781 97.117188 91.667969 96.613281 91.4375 C 97.6875 88.421875 99.589844 85.792969 102.050781 83.832031 C 104.492188 81.886719 107.492188 80.601562 110.769531 80.246094 M 132.96875 90.242188 C 131.632812 86.289062 129.179688 82.855469 125.996094 80.3125 C 122.832031 77.792969 118.949219 76.148438 114.703125 75.738281 L 114.5 75.71875 L 114.476562 75.71875 L 114.246094 75.699219 L 114.03125 75.6875 L 114.015625 75.683594 L 113.800781 75.671875 L 113.785156 75.671875 L 113.566406 75.660156 L 113.554688 75.660156 L 113.332031 75.652344 L 113.324219 75.652344 L 113.097656 75.644531 L 112.859375 75.644531 L 112.625 75.640625 L 112.386719 75.640625 L 112.160156 75.644531 L 112.152344 75.644531 L 111.925781 75.652344 L 111.917969 75.652344 L 111.695312 75.660156 L 111.683594 75.660156 L 111.464844 75.671875 L 111.449219 75.671875 L 111.230469 75.683594 L 111.214844 75.683594 L 111.003906 75.699219 L 110.773438 75.71875 L 110.75 75.71875 L 110.546875 75.738281 C 106.300781 76.148438 102.417969 77.796875 99.253906 80.3125 C 96.066406 82.855469 93.613281 86.289062 92.28125 90.242188 C 91.769531 90.183594 91.25 90.15625 90.722656 90.15625 C 86.796875 90.15625 83.242188 91.746094 80.667969 94.320312 C 78.097656 96.894531 76.503906 100.449219 76.503906 104.375 C 76.503906 108.300781 78.097656 111.855469 80.667969 114.429688 C 83.242188 117.003906 86.796875 118.59375 90.722656 118.59375 L 134.523438 118.59375 C 138.449219 118.59375 142.003906 117.003906 144.578125 114.429688 C 147.152344 111.855469 148.746094 108.300781 148.746094 104.375 C 148.746094 100.449219 147.152344 96.894531 144.578125 94.320312 C 142.003906 91.746094 138.449219 90.15625 134.523438 90.15625 C 134 90.15625 133.480469 90.183594 132.96875 90.242188 Z M 132.96875 90.242188 " fill-opacity="1" fill-rule="nonzero"/></g><g clip-path="url(#4e1218b679)"><path fill="#ffffff" d="M 76.476562 70.597656 L 153.933594 70.597656 L 153.933594 120.167969 L 76.476562 120.167969 Z M 76.476562 70.597656 " fill-opacity="1" fill-rule="nonzero"/></g><g fill="#004aad" fill-opacity="1"><g transform="translate(81.53123, 255.519754)"><g><path d="M 16.140625 0.703125 C 13.347656 0.703125 10.878906 0.125 8.734375 -1.03125 C 6.597656 -2.195312 4.929688 -3.816406 3.734375 -5.890625 C 2.535156 -7.972656 1.9375 -10.375 1.9375 -13.09375 C 1.9375 -15.820312 2.539062 -18.210938 3.75 -20.265625 C 4.96875 -22.328125 6.644531 -23.9375 8.78125 -25.09375 C 10.925781 -26.257812 13.410156 -26.84375 16.234375 -26.84375 C 19.222656 -26.84375 21.800781 -26.175781 23.96875 -24.84375 C 26.144531 -23.519531 27.804688 -21.660156 28.953125 -19.265625 C 30.097656 -16.878906 30.585938 -14.09375 30.421875 -10.90625 L 9.46875 -10.90625 C 9.832031 -9.113281 10.625 -7.742188 11.84375 -6.796875 C 13.070312 -5.847656 14.550781 -5.375 16.28125 -5.375 C 17.539062 -5.375 18.691406 -5.613281 19.734375 -6.09375 C 20.785156 -6.582031 21.628906 -7.253906 22.265625 -8.109375 L 29.921875 -8.109375 C 28.796875 -5.359375 27.019531 -3.203125 24.59375 -1.640625 C 22.175781 -0.078125 19.359375 0.703125 16.140625 0.703125 Z M 9.515625 -15.6875 L 23.109375 -15.6875 C 22.671875 -17.28125 21.863281 -18.53125 20.6875 -19.4375 C 19.507812 -20.351562 18.039062 -20.8125 16.28125 -20.8125 C 14.625 -20.8125 13.1875 -20.351562 11.96875 -19.4375 C 10.757812 -18.53125 9.941406 -17.28125 9.515625 -15.6875 Z M 9.515625 -15.6875 "/></g></g></g><g fill="#004aad" fill-opacity="1"><g transform="translate(112.352662, 255.519754)"><g><path d="M 11.296875 0 L 0.453125 -26.140625 L 8.71875 -26.140625 L 11.65625 -17.921875 L 15.140625 -9.0625 L 18.578125 -17.921875 L 21.5625 -26.140625 L 29.78125 -26.140625 L 18.875 0 Z M 11.296875 0 "/></g></g></g><g fill="#004aad" fill-opacity="1"><g transform="translate(141.082789, 255.519754)"><g><path d="M 16.140625 0.703125 C 13.347656 0.703125 10.878906 0.125 8.734375 -1.03125 C 6.597656 -2.195312 4.929688 -3.816406 3.734375 -5.890625 C 2.535156 -7.972656 1.9375 -10.375 1.9375 -13.09375 C 1.9375 -15.820312 2.539062 -18.210938 3.75 -20.265625 C 4.96875 -22.328125 6.644531 -23.9375 8.78125 -25.09375 C 10.925781 -26.257812 13.410156 -26.84375 16.234375 -26.84375 C 19.222656 -26.84375 21.800781 -26.175781 23.96875 -24.84375 C 26.144531 -23.519531 27.804688 -21.660156 28.953125 -19.265625 C 30.097656 -16.878906 30.585938 -14.09375 30.421875 -10.90625 L 9.46875 -10.90625 C 9.832031 -9.113281 10.625 -7.742188 11.84375 -6.796875 C 13.070312 -5.847656 14.550781 -5.375 16.28125 -5.375 C 17.539062 -5.375 18.691406 -5.613281 19.734375 -6.09375 C 20.785156 -6.582031 21.628906 -7.253906 22.265625 -8.109375 L 29.921875 -8.109375 C 28.796875 -5.359375 27.019531 -3.203125 24.59375 -1.640625 C 22.175781 -0.078125 19.359375 0.703125 16.140625 0.703125 Z M 9.515625 -15.6875 L 23.109375 -15.6875 C 22.671875 -17.28125 21.863281 -18.53125 20.6875 -19.4375 C 19.507812 -20.351562 18.039062 -20.8125 16.28125 -20.8125 C 14.625 -20.8125 13.1875 -20.351562 11.96875 -19.4375 C 10.757812 -18.53125 9.941406 -17.28125 9.515625 -15.6875 Z M 9.515625 -15.6875 "/></g></g></g><g fill="#004aad" fill-opacity="1"><g transform="translate(171.904221, 255.519754)"><g><path d="M 3.78125 0 L 3.78125 -26.140625 L 9.40625 -26.140625 L 10.40625 -22.65625 C 11.269531 -23.882812 12.332031 -24.769531 13.59375 -25.3125 C 14.851562 -25.863281 16.445312 -26.140625 18.375 -26.140625 L 21.21875 -26.140625 L 21.21875 -19.265625 L 18.328125 -19.265625 C 16.171875 -19.265625 14.46875 -18.679688 13.21875 -17.515625 C 11.976562 -16.359375 11.359375 -14.367188 11.359375 -11.546875 L 11.359375 0 Z M 3.78125 0 "/></g></g></g><g fill="#004aad" fill-opacity="1"><g transform="translate(193.3148, 255.519754)"><g><path d="M 3.890625 9.953125 L 3.890625 3.4375 L 6.875 3.4375 C 8.4375 3.4375 9.554688 3.191406 10.234375 2.703125 C 10.910156 2.222656 11.46875 1.335938 11.90625 0.046875 L 12.203125 -0.84375 L 0.453125 -26.140625 L 8.8125 -26.140625 L 15.828125 -9.953125 L 18.21875 -16.625 L 21.71875 -26.140625 L 29.828125 -26.140625 L 18.171875 3.09375 C 17.472656 4.882812 16.675781 6.273438 15.78125 7.265625 C 14.882812 8.265625 13.769531 8.960938 12.4375 9.359375 C 11.113281 9.753906 9.441406 9.953125 7.421875 9.953125 Z M 3.890625 9.953125 "/></g></g></g><g fill="#004aad" fill-opacity="1"><g transform="translate(222.044927, 255.519754)"><g><path d="M 0.453125 0 L 14.296875 -34.859375 L 22.0625 -34.859375 L 35.90625 0 L 27.4375 0 L 25.09375 -6.03125 L 11.25 -6.03125 L 8.90625 0 Z M 13.296875 -12.25 L 23.109375 -12.25 L 18.171875 -25 Z M 13.296875 -12.25 "/></g></g></g><g fill="#004aad" fill-opacity="1"><g transform="translate(256.899577, 255.519754)"><g><path d="M 3.78125 0 L 3.78125 -26.140625 L 11.359375 -26.140625 L 11.359375 0 Z M 2.6875 -34.609375 C 2.6875 -36.003906 3.140625 -37.140625 4.046875 -38.015625 C 4.960938 -38.898438 6.132812 -39.34375 7.5625 -39.34375 C 9.03125 -39.34375 10.210938 -38.898438 11.109375 -38.015625 C 12.003906 -37.140625 12.453125 -36.003906 12.453125 -34.609375 C 12.453125 -33.210938 12.003906 -32.070312 11.109375 -31.1875 C 10.210938 -30.3125 9.03125 -29.875 7.5625 -29.875 C 6.132812 -29.875 4.960938 -30.3125 4.046875 -31.1875 C 3.140625 -32.070312 2.6875 -33.210938 2.6875 -34.609375 Z M 2.6875 -34.609375 "/></g></g></g><g fill="#004aad" fill-opacity="1"><g transform="translate(270.542467, 255.519754)"><g><path d="M 3.78125 0 L 3.78125 -26.140625 L 9.40625 -26.140625 L 10.40625 -22.65625 C 11.269531 -23.882812 12.332031 -24.769531 13.59375 -25.3125 C 14.851562 -25.863281 16.445312 -26.140625 18.375 -26.140625 L 21.21875 -26.140625 L 21.21875 -19.265625 L 18.328125 -19.265625 C 16.171875 -19.265625 14.46875 -18.679688 13.21875 -17.515625 C 11.976562 -16.359375 11.359375 -14.367188 11.359375 -11.546875 L 11.359375 0 Z M 3.78125 0 "/></g></g></g></svg>