<svg xmlns="http://www.w3.org/2000/svg" xmlns:xlink="http://www.w3.org/1999/xlink" width="500" zoomAndPan="magnify" viewBox="0 0 375 374.999991" height="500" preserveAspectRatio="xMidYMid meet" version="1.0"><defs><g/><clipPath id="78e945fc01"><path d="M 24 119 L 163.238281 119 L 163.238281 233.507812 L 24 233.507812 Z M 24 119 " clip-rule="nonzero"/></clipPath><clipPath id="ca75d56e87"><path d="M 0 104.847656 L 59 104.847656 L 59 148 L 0 148 Z M 0 104.847656 " clip-rule="nonzero"/></clipPath><clipPath id="badd4f7532"><path d="M 0 99.753906 L 63.804688 99.753906 L 63.804688 149.328125 L 0 149.328125 Z M 0 99.753906 " clip-rule="nonzero"/></clipPath></defs><g clip-path="url(#78e945fc01)"><path fill="#ffde59" d="M 139.980469 213.984375 C 138.816406 212.816406 137.203125 212.09375 135.421875 212.09375 C 133.640625 212.09375 132.023438 212.816406 130.859375 213.984375 C 129.691406 215.148438 128.96875 216.765625 128.96875 218.546875 C 128.96875 220.328125 129.691406 221.941406 130.859375 223.109375 C 132.023438 224.273438 133.640625 224.996094 135.421875 224.996094 C 137.203125 224.996094 138.816406 224.273438 139.980469 223.109375 C 141.148438 221.941406 141.871094 220.328125 141.871094 218.546875 C 141.871094 216.765625 141.148438 215.148438 139.980469 213.984375 M 62.644531 154.738281 C 65.910156 145.082031 71.898438 136.683594 79.691406 130.472656 C 88.667969 123.324219 100.027344 119.050781 112.375 119.050781 C 124.5625 119.050781 135.796875 123.222656 144.722656 130.222656 C 153.832031 137.363281 160.523438 147.453125 163.359375 159.054688 L 152.695312 161.636719 C 150.457031 152.476562 145.167969 144.507812 137.972656 138.867188 C 130.9375 133.347656 122.046875 130.058594 112.375 130.058594 C 102.597656 130.058594 93.613281 133.429688 86.53125 139.074219 C 80.515625 143.867188 75.859375 150.289062 73.242188 157.667969 C 74.472656 158.230469 75.664062 158.863281 76.816406 159.5625 C 82.234375 162.84375 86.691406 167.570312 89.640625 173.203125 L 79.921875 178.277344 C 77.902344 174.417969 74.851562 171.183594 71.136719 168.933594 C 67.582031 166.78125 63.375 165.539062 58.84375 165.539062 C 52.285156 165.539062 46.34375 168.195312 42.046875 172.496094 C 37.75 176.789062 35.09375 182.730469 35.09375 189.289062 C 35.09375 195.851562 37.75 201.789062 42.046875 206.085938 C 46.34375 210.382812 52.285156 213.042969 58.84375 213.042969 L 121.777344 213.042969 C 122.527344 211.195312 123.636719 209.535156 125.023438 208.148438 C 127.683594 205.484375 131.359375 203.839844 135.421875 203.839844 C 139.480469 203.839844 143.160156 205.484375 145.820312 208.148438 C 148.480469 210.808594 150.128906 214.488281 150.128906 218.546875 C 150.128906 222.605469 148.480469 226.285156 145.820312 228.945312 C 143.160156 231.605469 139.480469 233.253906 135.421875 233.253906 C 131.359375 233.253906 127.683594 231.605469 125.023438 228.945312 C 123.636719 227.558594 122.527344 225.898438 121.777344 224.050781 L 58.84375 224.050781 C 49.246094 224.050781 40.554688 220.160156 34.265625 213.867188 C 27.972656 207.578125 24.082031 198.886719 24.082031 189.289062 C 24.082031 179.695312 27.972656 171.003906 34.265625 164.710938 C 40.554688 158.421875 49.246094 154.53125 58.84375 154.53125 C 60.125 154.53125 61.394531 154.601562 62.644531 154.738281 Z M 62.644531 154.738281 " fill-opacity="1" fill-rule="nonzero"/></g><g clip-path="url(#ca75d56e87)"><path fill="#ffde59" d="M 20.726562 109.402344 L 20.75 109.398438 C 20.863281 109.386719 20.980469 109.378906 21.09375 109.367188 L 21.109375 109.367188 L 21.277344 109.351562 L 21.292969 109.351562 L 21.460938 109.339844 L 21.476562 109.339844 L 21.648438 109.328125 L 21.660156 109.328125 L 21.832031 109.320312 L 21.839844 109.320312 L 22.019531 109.3125 L 22.023438 109.3125 L 22.203125 109.308594 L 22.207031 109.308594 L 22.390625 109.304688 L 22.765625 109.304688 L 22.949219 109.308594 L 22.953125 109.308594 L 23.132812 109.3125 L 23.140625 109.3125 L 23.316406 109.320312 L 23.324219 109.320312 L 23.5 109.328125 L 23.511719 109.328125 L 23.683594 109.339844 L 23.695312 109.339844 L 23.867188 109.351562 L 23.878906 109.351562 L 24.046875 109.367188 L 24.0625 109.367188 C 24.179688 109.378906 24.292969 109.386719 24.410156 109.398438 L 24.429688 109.402344 L 24.433594 109.402344 C 27.714844 109.757812 30.707031 111.046875 33.152344 112.992188 C 35.613281 114.953125 37.519531 117.582031 38.589844 120.597656 C 38.085938 120.828125 37.597656 121.085938 37.125 121.371094 C 34.910156 122.714844 33.085938 124.648438 31.878906 126.953125 L 35.855469 129.027344 C 36.683594 127.449219 37.929688 126.125 39.449219 125.207031 C 40.902344 124.324219 42.625 123.816406 44.480469 123.816406 C 47.164062 123.816406 49.59375 124.90625 51.351562 126.664062 C 53.109375 128.421875 54.195312 130.851562 54.195312 133.535156 C 54.195312 136.214844 53.109375 138.648438 51.351562 140.40625 C 49.59375 142.164062 47.164062 143.25 44.480469 143.25 L 0.679688 143.25 C -2.003906 143.25 -4.433594 142.164062 -6.191406 140.40625 C -7.949219 138.648438 -9.039062 136.214844 -9.039062 133.535156 C -9.039062 130.851562 -7.949219 128.421875 -6.191406 126.664062 C -4.433594 124.90625 -2.003906 123.816406 0.679688 123.816406 C 2.535156 123.816406 4.253906 124.324219 5.710938 125.207031 C 7.226562 126.125 8.472656 127.449219 9.300781 129.027344 L 13.277344 126.953125 C 12.070312 124.648438 10.25 122.714844 8.03125 121.371094 C 7.5625 121.085938 7.074219 120.828125 6.570312 120.597656 C 7.640625 117.582031 9.546875 114.953125 12.007812 112.992188 C 14.449219 111.042969 17.445312 109.757812 20.726562 109.402344 M 42.921875 119.398438 C 41.585938 115.449219 39.136719 112.015625 35.949219 109.472656 C 32.789062 106.953125 28.902344 105.308594 24.65625 104.898438 L 24.453125 104.878906 L 24.429688 104.878906 L 24.199219 104.859375 L 23.988281 104.84375 L 23.96875 104.84375 L 23.753906 104.832031 L 23.738281 104.832031 L 23.519531 104.820312 L 23.507812 104.820312 L 23.285156 104.8125 L 23.277344 104.8125 L 23.050781 104.804688 L 23.046875 104.804688 L 22.8125 104.800781 L 22.34375 104.800781 L 22.113281 104.804688 L 22.105469 104.804688 L 21.878906 104.808594 L 21.871094 104.808594 L 21.648438 104.820312 L 21.636719 104.820312 L 21.417969 104.832031 L 21.402344 104.832031 L 21.1875 104.84375 L 21.167969 104.84375 L 20.957031 104.859375 L 20.726562 104.878906 L 20.703125 104.878906 L 20.5 104.898438 C 16.257812 105.308594 12.371094 106.953125 9.207031 109.472656 C 6.019531 112.015625 3.570312 115.449219 2.234375 119.398438 C 1.722656 119.34375 1.207031 119.316406 0.679688 119.316406 C -3.246094 119.316406 -6.800781 120.90625 -9.375 123.480469 C -11.949219 126.050781 -13.539062 129.609375 -13.539062 133.535156 C -13.539062 137.460938 -11.949219 141.015625 -9.375 143.589844 C -6.800781 146.164062 -3.246094 147.753906 0.679688 147.753906 L 44.476562 147.753906 C 48.40625 147.753906 51.960938 146.164062 54.535156 143.589844 C 57.105469 141.015625 58.699219 137.460938 58.699219 133.535156 C 58.699219 129.609375 57.105469 126.050781 54.535156 123.480469 C 51.960938 120.90625 48.40625 119.316406 44.476562 119.316406 C 43.953125 119.316406 43.433594 119.34375 42.921875 119.398438 Z M 42.921875 119.398438 " fill-opacity="1" fill-rule="nonzero"/></g><g clip-path="url(#badd4f7532)"><path fill="#ffffff" d="M -13.566406 99.753906 L 63.890625 99.753906 L 63.890625 149.328125 L -13.566406 149.328125 Z M -13.566406 99.753906 " fill-opacity="1" fill-rule="nonzero"/></g><g fill="#004aad" fill-opacity="1"><g transform="translate(120.857273, 196.523365)"><g><path d="M 16.140625 0.703125 C 13.347656 0.703125 10.878906 0.125 8.734375 -1.03125 C 6.597656 -2.195312 4.929688 -3.816406 3.734375 -5.890625 C 2.535156 -7.972656 1.9375 -10.375 1.9375 -13.09375 C 1.9375 -15.820312 2.539062 -18.210938 3.75 -20.265625 C 4.96875 -22.328125 6.644531 -23.9375 8.78125 -25.09375 C 10.925781 -26.257812 13.410156 -26.84375 16.234375 -26.84375 C 19.222656 -26.84375 21.800781 -26.175781 23.96875 -24.84375 C 26.144531 -23.519531 27.804688 -21.660156 28.953125 -19.265625 C 30.097656 -16.878906 30.585938 -14.09375 30.421875 -10.90625 L 9.46875 -10.90625 C 9.832031 -9.113281 10.625 -7.742188 11.84375 -6.796875 C 13.070312 -5.847656 14.550781 -5.375 16.28125 -5.375 C 17.539062 -5.375 18.691406 -5.613281 19.734375 -6.09375 C 20.785156 -6.582031 21.628906 -7.253906 22.265625 -8.109375 L 29.921875 -8.109375 C 28.796875 -5.359375 27.019531 -3.203125 24.59375 -1.640625 C 22.175781 -0.078125 19.359375 0.703125 16.140625 0.703125 Z M 9.515625 -15.6875 L 23.109375 -15.6875 C 22.671875 -17.28125 21.863281 -18.53125 20.6875 -19.4375 C 19.507812 -20.351562 18.039062 -20.8125 16.28125 -20.8125 C 14.625 -20.8125 13.1875 -20.351562 11.96875 -19.4375 C 10.757812 -18.53125 9.941406 -17.28125 9.515625 -15.6875 Z M 9.515625 -15.6875 "/></g></g></g><g fill="#004aad" fill-opacity="1"><g transform="translate(151.678705, 196.523365)"><g><path d="M 11.296875 0 L 0.453125 -26.140625 L 8.71875 -26.140625 L 11.65625 -17.921875 L 15.140625 -9.0625 L 18.578125 -17.921875 L 21.5625 -26.140625 L 29.78125 -26.140625 L 18.875 0 Z M 11.296875 0 "/></g></g></g><g fill="#004aad" fill-opacity="1"><g transform="translate(180.408833, 196.523365)"><g><path d="M 16.140625 0.703125 C 13.347656 0.703125 10.878906 0.125 8.734375 -1.03125 C 6.597656 -2.195312 4.929688 -3.816406 3.734375 -5.890625 C 2.535156 -7.972656 1.9375 -10.375 1.9375 -13.09375 C 1.9375 -15.820312 2.539062 -18.210938 3.75 -20.265625 C 4.96875 -22.328125 6.644531 -23.9375 8.78125 -25.09375 C 10.925781 -26.257812 13.410156 -26.84375 16.234375 -26.84375 C 19.222656 -26.84375 21.800781 -26.175781 23.96875 -24.84375 C 26.144531 -23.519531 27.804688 -21.660156 28.953125 -19.265625 C 30.097656 -16.878906 30.585938 -14.09375 30.421875 -10.90625 L 9.46875 -10.90625 C 9.832031 -9.113281 10.625 -7.742188 11.84375 -6.796875 C 13.070312 -5.847656 14.550781 -5.375 16.28125 -5.375 C 17.539062 -5.375 18.691406 -5.613281 19.734375 -6.09375 C 20.785156 -6.582031 21.628906 -7.253906 22.265625 -8.109375 L 29.921875 -8.109375 C 28.796875 -5.359375 27.019531 -3.203125 24.59375 -1.640625 C 22.175781 -0.078125 19.359375 0.703125 16.140625 0.703125 Z M 9.515625 -15.6875 L 23.109375 -15.6875 C 22.671875 -17.28125 21.863281 -18.53125 20.6875 -19.4375 C 19.507812 -20.351562 18.039062 -20.8125 16.28125 -20.8125 C 14.625 -20.8125 13.1875 -20.351562 11.96875 -19.4375 C 10.757812 -18.53125 9.941406 -17.28125 9.515625 -15.6875 Z M 9.515625 -15.6875 "/></g></g></g><g fill="#004aad" fill-opacity="1"><g transform="translate(211.230264, 196.523365)"><g><path d="M 3.78125 0 L 3.78125 -26.140625 L 9.40625 -26.140625 L 10.40625 -22.65625 C 11.269531 -23.882812 12.332031 -24.769531 13.59375 -25.3125 C 14.851562 -25.863281 16.445312 -26.140625 18.375 -26.140625 L 21.21875 -26.140625 L 21.21875 -19.265625 L 18.328125 -19.265625 C 16.171875 -19.265625 14.46875 -18.679688 13.21875 -17.515625 C 11.976562 -16.359375 11.359375 -14.367188 11.359375 -11.546875 L 11.359375 0 Z M 3.78125 0 "/></g></g></g><g fill="#004aad" fill-opacity="1"><g transform="translate(232.640843, 196.523365)"><g><path d="M 3.890625 9.953125 L 3.890625 3.4375 L 6.875 3.4375 C 8.4375 3.4375 9.554688 3.191406 10.234375 2.703125 C 10.910156 2.222656 11.46875 1.335938 11.90625 0.046875 L 12.203125 -0.84375 L 0.453125 -26.140625 L 8.8125 -26.140625 L 15.828125 -9.953125 L 18.21875 -16.625 L 21.71875 -26.140625 L 29.828125 -26.140625 L 18.171875 3.09375 C 17.472656 4.882812 16.675781 6.273438 15.78125 7.265625 C 14.882812 8.265625 13.769531 8.960938 12.4375 9.359375 C 11.113281 9.753906 9.441406 9.953125 7.421875 9.953125 Z M 3.890625 9.953125 "/></g></g></g><g fill="#004aad" fill-opacity="1"><g transform="translate(261.37097, 196.523365)"><g><path d="M 0.453125 0 L 14.296875 -34.859375 L 22.0625 -34.859375 L 35.90625 0 L 27.4375 0 L 25.09375 -6.03125 L 11.25 -6.03125 L 8.90625 0 Z M 13.296875 -12.25 L 23.109375 -12.25 L 18.171875 -25 Z M 13.296875 -12.25 "/></g></g></g><g fill="#004aad" fill-opacity="1"><g transform="translate(296.22562, 196.523365)"><g><path d="M 3.78125 0 L 3.78125 -26.140625 L 11.359375 -26.140625 L 11.359375 0 Z M 2.6875 -34.609375 C 2.6875 -36.003906 3.140625 -37.140625 4.046875 -38.015625 C 4.960938 -38.898438 6.132812 -39.34375 7.5625 -39.34375 C 9.03125 -39.34375 10.210938 -38.898438 11.109375 -38.015625 C 12.003906 -37.140625 12.453125 -36.003906 12.453125 -34.609375 C 12.453125 -33.210938 12.003906 -32.070312 11.109375 -31.1875 C 10.210938 -30.3125 9.03125 -29.875 7.5625 -29.875 C 6.132812 -29.875 4.960938 -30.3125 4.046875 -31.1875 C 3.140625 -32.070312 2.6875 -33.210938 2.6875 -34.609375 Z M 2.6875 -34.609375 "/></g></g></g><g fill="#004aad" fill-opacity="1"><g transform="translate(309.86851, 196.523365)"><g><path d="M 3.78125 0 L 3.78125 -26.140625 L 9.40625 -26.140625 L 10.40625 -22.65625 C 11.269531 -23.882812 12.332031 -24.769531 13.59375 -25.3125 C 14.851562 -25.863281 16.445312 -26.140625 18.375 -26.140625 L 21.21875 -26.140625 L 21.21875 -19.265625 L 18.328125 -19.265625 C 16.171875 -19.265625 14.46875 -18.679688 13.21875 -17.515625 C 11.976562 -16.359375 11.359375 -14.367188 11.359375 -11.546875 L 11.359375 0 Z M 3.78125 0 "/></g></g></g></svg>