<svg xmlns="http://www.w3.org/2000/svg" xmlns:xlink="http://www.w3.org/1999/xlink" width="294" zoomAndPan="magnify" viewBox="0 0 220.5 158.249993" height="211" preserveAspectRatio="xMidYMid meet" version="1.0"><defs><g/><clipPath id="de0a01ba1e"><path d="M 69.097656 16 L 89 16 L 89 47 L 69.097656 47 Z M 69.097656 16 " clip-rule="nonzero"/></clipPath><clipPath id="827ef39adf"><path d="M 132 42 L 153.449219 42 L 153.449219 76 L 132 76 Z M 132 42 " clip-rule="nonzero"/></clipPath><clipPath id="af8e86b30d"><path d="M 102 13 L 153.449219 13 L 153.449219 59 L 102 59 Z M 102 13 " clip-rule="nonzero"/></clipPath><clipPath id="baa3ec91bd"><path d="M 69.097656 44 L 82 44 L 82 64 L 69.097656 64 Z M 69.097656 44 " clip-rule="nonzero"/></clipPath><clipPath id="c8e35e23c0"><path d="M 69.097656 47 L 112 47 L 112 83 L 69.097656 83 Z M 69.097656 47 " clip-rule="nonzero"/></clipPath></defs><g clip-path="url(#de0a01ba1e)"><path fill="#ffbc2e" d="M 86.433594 46.738281 C 86.695312 46.910156 87.042969 46.878906 87.269531 46.660156 L 88.402344 45.5625 C 88.371094 45.519531 88.332031 45.480469 88.296875 45.433594 C 84.957031 40.757812 77.484375 29.074219 76.175781 16.761719 C 76.121094 16.246094 75.550781 15.988281 75.121094 16.277344 C 71.492188 18.730469 69.101562 22.882812 69.101562 27.601562 L 69.101562 34.875 C 69.101562 35.101562 69.214844 35.3125 69.402344 35.433594 L 86.433594 46.738281 " fill-opacity="1" fill-rule="nonzero"/></g><g clip-path="url(#827ef39adf)"><path fill="#5db3ff" d="M 152.316406 43.1875 L 132.839844 62.03125 C 132.53125 62.332031 132.578125 62.839844 132.9375 63.078125 L 151.15625 75.191406 C 151.488281 75.414062 151.957031 75.300781 152.128906 74.9375 C 152.976562 73.15625 153.453125 71.164062 153.453125 69.0625 L 153.453125 43.671875 C 153.453125 43.078125 152.742188 42.773438 152.316406 43.1875 " fill-opacity="1" fill-rule="nonzero"/></g><g clip-path="url(#af8e86b30d)"><path fill="#acde50" d="M 139.828125 13.945312 L 131.347656 13.945312 C 131.175781 13.945312 131.007812 14.011719 130.882812 14.132812 L 102.34375 41.75 C 102.035156 42.050781 102.082031 42.558594 102.4375 42.796875 L 125.867188 58.375 C 126.128906 58.550781 126.476562 58.515625 126.703125 58.296875 L 139.824219 45.597656 C 140.132812 45.300781 140.085938 44.789062 139.730469 44.554688 L 128.109375 36.84375 C 127.75 36.605469 127.703125 36.097656 128.011719 35.796875 L 132.140625 31.804688 C 132.367188 31.585938 132.714844 31.554688 132.976562 31.726562 L 145.09375 39.769531 C 145.355469 39.941406 145.703125 39.910156 145.929688 39.691406 L 153.25 32.609375 C 153.378906 32.484375 153.453125 32.308594 153.453125 32.125 L 153.453125 27.601562 C 153.453125 20.058594 147.351562 13.945312 139.828125 13.945312 " fill-opacity="1" fill-rule="nonzero"/></g><path fill="#5db3ff" d="M 109.054688 25.578125 L 119.882812 15.101562 C 120.316406 14.679688 120.019531 13.945312 119.417969 13.945312 L 110.488281 13.945312 C 110.132812 13.945312 109.84375 14.222656 109.828125 14.582031 C 109.671875 18.09375 108.964844 21.578125 107.953125 24.898438 C 107.75 25.566406 108.554688 26.0625 109.054688 25.578125 " fill-opacity="1" fill-rule="nonzero"/><g clip-path="url(#baa3ec91bd)"><path fill="#acde50" d="M 81.167969 52.566406 C 81.476562 52.269531 81.429688 51.757812 81.070312 51.523438 L 70.144531 44.273438 C 69.699219 43.976562 69.101562 44.296875 69.101562 44.832031 L 69.101562 62.65625 C 69.101562 63.25 69.8125 63.554688 70.238281 63.140625 L 81.167969 52.566406 " fill-opacity="1" fill-rule="nonzero"/></g><path fill="#ffbc2e" d="M 118.445312 61.792969 C 118.183594 61.617188 117.835938 61.648438 117.609375 61.867188 L 97.253906 81.5625 C 96.820312 81.984375 97.117188 82.71875 97.722656 82.71875 L 115.933594 82.71875 C 116.375 82.71875 116.796875 82.914062 117.085938 83.253906 L 127.839844 95.898438 C 128.753906 96.976562 130.507812 96.324219 130.507812 94.914062 L 130.507812 84.238281 C 130.507812 83.402344 131.1875 82.71875 132.023438 82.71875 L 139.828125 82.71875 C 142.011719 82.71875 144.066406 82.195312 145.894531 81.277344 C 146.363281 81.042969 146.417969 80.394531 145.980469 80.105469 L 118.445312 61.792969 " fill-opacity="1" fill-rule="nonzero"/><g clip-path="url(#c8e35e23c0)"><path fill="#5db3ff" d="M 111.375 57.089844 L 97.074219 47.582031 C 96.8125 47.40625 96.464844 47.4375 96.238281 47.65625 L 70.082031 72.96875 C 69.890625 73.152344 69.820312 73.4375 69.910156 73.6875 C 71.800781 78.953125 76.824219 82.71875 82.730469 82.71875 L 85.792969 82.71875 C 85.964844 82.71875 86.132812 82.652344 86.257812 82.53125 L 111.46875 58.132812 C 111.777344 57.835938 111.730469 57.328125 111.375 57.089844 " fill-opacity="1" fill-rule="nonzero"/></g><path fill="#fb4d48" d="M 92.921875 18.222656 C 90.125 18.222656 87.855469 15.945312 87.855469 13.140625 C 87.855469 10.335938 90.125 8.0625 92.921875 8.0625 C 95.71875 8.0625 97.988281 10.335938 97.988281 13.140625 C 97.988281 15.945312 95.71875 18.222656 92.921875 18.222656 Z M 79.902344 13.875 C 80.222656 26.121094 88.183594 38.5 91.496094 43.140625 C 92.195312 44.117188 93.640625 44.125 94.339844 43.148438 C 97.714844 38.421875 105.949219 25.621094 105.949219 13.125 C 105.949219 5.910156 100.117188 0.0664062 92.925781 0.0664062 C 85.316406 0.0625 79.714844 6.597656 79.902344 13.875 " fill-opacity="1" fill-rule="nonzero"/><g fill="#004aad" fill-opacity="1"><g transform="translate(31.678287, 131.420886)"><g><path d="M 15.453125 0 L 1.6875 0 L 1.6875 -21.4375 L 6.71875 -21.4375 L 6.71875 -4.5 L 15.453125 -4.5 Z M 15.453125 0 "/></g></g></g><g fill="#004aad" fill-opacity="1"><g transform="translate(48.755052, 131.420886)"><g><path d="M 11.609375 0.484375 C 9.765625 0.484375 8.164062 0.179688 6.8125 -0.421875 C 5.46875 -1.023438 4.359375 -1.84375 3.484375 -2.875 C 2.617188 -3.914062 1.972656 -5.109375 1.546875 -6.453125 C 1.117188 -7.804688 0.90625 -9.234375 0.90625 -10.734375 C 0.90625 -12.234375 1.117188 -13.648438 1.546875 -14.984375 C 1.972656 -16.328125 2.617188 -17.515625 3.484375 -18.546875 C 4.359375 -19.585938 5.46875 -20.40625 6.8125 -21 C 8.164062 -21.59375 9.765625 -21.890625 11.609375 -21.890625 C 13.421875 -21.890625 14.992188 -21.59375 16.328125 -21 C 17.671875 -20.40625 18.78125 -19.585938 19.65625 -18.546875 C 20.539062 -17.515625 21.195312 -16.328125 21.625 -14.984375 C 22.0625 -13.648438 22.28125 -12.234375 22.28125 -10.734375 C 22.28125 -9.234375 22.0625 -7.804688 21.625 -6.453125 C 21.195312 -5.109375 20.539062 -3.914062 19.65625 -2.875 C 18.78125 -1.84375 17.671875 -1.023438 16.328125 -0.421875 C 14.992188 0.179688 13.421875 0.484375 11.609375 0.484375 Z M 11.609375 -4.015625 C 13.285156 -4.015625 14.597656 -4.625 15.546875 -5.84375 C 16.492188 -7.0625 16.96875 -8.691406 16.96875 -10.734375 C 16.96875 -12.753906 16.492188 -14.367188 15.546875 -15.578125 C 14.597656 -16.785156 13.285156 -17.390625 11.609375 -17.390625 C 9.921875 -17.390625 8.597656 -16.785156 7.640625 -15.578125 C 6.679688 -14.367188 6.203125 -12.753906 6.203125 -10.734375 C 6.203125 -8.691406 6.679688 -7.0625 7.640625 -5.84375 C 8.597656 -4.625 9.921875 -4.015625 11.609375 -4.015625 Z M 11.609375 -4.015625 "/></g></g></g><g fill="#004aad" fill-opacity="1"><g transform="translate(73.358776, 131.420886)"><g><path d="M 11.609375 0.484375 C 9.765625 0.484375 8.164062 0.179688 6.8125 -0.421875 C 5.46875 -1.023438 4.359375 -1.84375 3.484375 -2.875 C 2.617188 -3.914062 1.972656 -5.109375 1.546875 -6.453125 C 1.117188 -7.804688 0.90625 -9.234375 0.90625 -10.734375 C 0.90625 -12.234375 1.117188 -13.648438 1.546875 -14.984375 C 1.972656 -16.328125 2.617188 -17.515625 3.484375 -18.546875 C 4.359375 -19.585938 5.46875 -20.40625 6.8125 -21 C 8.164062 -21.59375 9.765625 -21.890625 11.609375 -21.890625 C 13.492188 -21.890625 15.101562 -21.566406 16.4375 -20.921875 C 17.78125 -20.273438 18.84375 -19.375 19.625 -18.21875 C 20.414062 -17.0625 20.90625 -15.71875 21.09375 -14.1875 L 15.59375 -14.1875 C 15.445312 -15.289062 14.992188 -16.097656 14.234375 -16.609375 C 13.472656 -17.128906 12.554688 -17.390625 11.484375 -17.390625 C 9.785156 -17.390625 8.476562 -16.785156 7.5625 -15.578125 C 6.65625 -14.367188 6.203125 -12.753906 6.203125 -10.734375 C 6.203125 -8.691406 6.65625 -7.0625 7.5625 -5.84375 C 8.476562 -4.625 9.785156 -4.015625 11.484375 -4.015625 C 12.554688 -4.015625 13.46875 -4.273438 14.21875 -4.796875 C 14.96875 -5.328125 15.425781 -6.15625 15.59375 -7.28125 L 21.09375 -7.28125 C 20.90625 -5.738281 20.414062 -4.378906 19.625 -3.203125 C 18.84375 -2.035156 17.78125 -1.128906 16.4375 -0.484375 C 15.101562 0.160156 13.492188 0.484375 11.609375 0.484375 Z M 11.609375 0.484375 "/></g></g></g><g fill="#004aad" fill-opacity="1"><g transform="translate(96.642478, 131.420886)"><g><path d="M 5.390625 0 L 0.0625 0 L 7.390625 -21.4375 L 12.84375 -21.4375 L 20.171875 0 L 14.828125 0 L 13.6875 -3.84375 L 6.546875 -3.84375 Z M 10.109375 -15.84375 L 7.859375 -8.203125 L 12.359375 -8.203125 Z M 10.109375 -15.84375 "/></g></g></g><g fill="#004aad" fill-opacity="1"><g transform="translate(118.269123, 131.420886)"><g><path d="M 11.296875 0 L 6.265625 0 L 6.265625 -16.9375 L 0.21875 -16.9375 L 0.21875 -21.4375 L 17.328125 -21.4375 L 17.328125 -16.9375 L 11.296875 -16.9375 Z M 11.296875 0 "/></g></g></g><g fill="#004aad" fill-opacity="1"><g transform="translate(137.22763, 131.420886)"><g><path d="M 6.71875 0 L 1.6875 0 L 1.6875 -21.4375 L 6.71875 -21.4375 Z M 6.71875 0 "/></g></g></g><g fill="#004aad" fill-opacity="1"><g transform="translate(147.058285, 131.420886)"><g><path d="M 11.609375 0.484375 C 9.765625 0.484375 8.164062 0.179688 6.8125 -0.421875 C 5.46875 -1.023438 4.359375 -1.84375 3.484375 -2.875 C 2.617188 -3.914062 1.972656 -5.109375 1.546875 -6.453125 C 1.117188 -7.804688 0.90625 -9.234375 0.90625 -10.734375 C 0.90625 -12.234375 1.117188 -13.648438 1.546875 -14.984375 C 1.972656 -16.328125 2.617188 -17.515625 3.484375 -18.546875 C 4.359375 -19.585938 5.46875 -20.40625 6.8125 -21 C 8.164062 -21.59375 9.765625 -21.890625 11.609375 -21.890625 C 13.421875 -21.890625 14.992188 -21.59375 16.328125 -21 C 17.671875 -20.40625 18.78125 -19.585938 19.65625 -18.546875 C 20.539062 -17.515625 21.195312 -16.328125 21.625 -14.984375 C 22.0625 -13.648438 22.28125 -12.234375 22.28125 -10.734375 C 22.28125 -9.234375 22.0625 -7.804688 21.625 -6.453125 C 21.195312 -5.109375 20.539062 -3.914062 19.65625 -2.875 C 18.78125 -1.84375 17.671875 -1.023438 16.328125 -0.421875 C 14.992188 0.179688 13.421875 0.484375 11.609375 0.484375 Z M 11.609375 -4.015625 C 13.285156 -4.015625 14.597656 -4.625 15.546875 -5.84375 C 16.492188 -7.0625 16.96875 -8.691406 16.96875 -10.734375 C 16.96875 -12.753906 16.492188 -14.367188 15.546875 -15.578125 C 14.597656 -16.785156 13.285156 -17.390625 11.609375 -17.390625 C 9.921875 -17.390625 8.597656 -16.785156 7.640625 -15.578125 C 6.679688 -14.367188 6.203125 -12.753906 6.203125 -10.734375 C 6.203125 -8.691406 6.679688 -7.0625 7.640625 -5.84375 C 8.597656 -4.625 9.921875 -4.015625 11.609375 -4.015625 Z M 11.609375 -4.015625 "/></g></g></g><g fill="#004aad" fill-opacity="1"><g transform="translate(171.662003, 131.420886)"><g><path d="M 6.71875 0 L 1.6875 0 L 1.6875 -21.4375 L 6.796875 -21.4375 L 15.03125 -8.421875 L 15.03125 -21.4375 L 20.0625 -21.4375 L 20.0625 0 L 14.953125 0 L 6.71875 -13.09375 Z M 6.71875 0 "/></g></g></g><g fill="#004aad" fill-opacity="1"><g transform="translate(59.179887, 151.683356)"><g><path d="M 2.875 -2.28125 L 2.875 0 L 2.09375 0 L 2.09375 -2.28125 L 0.015625 -5.703125 L 0.6875 -5.703125 C 0.75 -5.703125 0.800781 -5.6875 0.84375 -5.65625 C 0.882812 -5.625 0.921875 -5.582031 0.953125 -5.53125 L 2.265625 -3.3125 C 2.304688 -3.21875 2.347656 -3.128906 2.390625 -3.046875 C 2.429688 -2.960938 2.46875 -2.882812 2.5 -2.8125 C 2.519531 -2.882812 2.550781 -2.960938 2.59375 -3.046875 C 2.632812 -3.128906 2.675781 -3.21875 2.71875 -3.3125 L 4.015625 -5.53125 C 4.046875 -5.570312 4.082031 -5.609375 4.125 -5.640625 C 4.164062 -5.679688 4.21875 -5.703125 4.28125 -5.703125 L 4.96875 -5.703125 Z M 2.875 -2.28125 "/></g></g></g><g fill="#004aad" fill-opacity="1"><g transform="translate(70.51822, 151.683356)"><g><path d="M 6 -2.859375 C 6 -2.429688 5.929688 -2.035156 5.796875 -1.671875 C 5.660156 -1.316406 5.46875 -1.007812 5.21875 -0.75 C 4.976562 -0.488281 4.679688 -0.285156 4.328125 -0.140625 C 3.984375 -0.00390625 3.601562 0.0625 3.1875 0.0625 C 2.769531 0.0625 2.382812 -0.00390625 2.03125 -0.140625 C 1.6875 -0.285156 1.390625 -0.488281 1.140625 -0.75 C 0.898438 -1.007812 0.710938 -1.316406 0.578125 -1.671875 C 0.441406 -2.035156 0.375 -2.429688 0.375 -2.859375 C 0.375 -3.285156 0.441406 -3.675781 0.578125 -4.03125 C 0.710938 -4.382812 0.898438 -4.691406 1.140625 -4.953125 C 1.390625 -5.210938 1.6875 -5.414062 2.03125 -5.5625 C 2.382812 -5.707031 2.769531 -5.78125 3.1875 -5.78125 C 3.601562 -5.78125 3.984375 -5.707031 4.328125 -5.5625 C 4.679688 -5.414062 4.976562 -5.210938 5.21875 -4.953125 C 5.46875 -4.691406 5.660156 -4.382812 5.796875 -4.03125 C 5.929688 -3.675781 6 -3.285156 6 -2.859375 Z M 5.21875 -2.859375 C 5.21875 -3.203125 5.164062 -3.515625 5.0625 -3.796875 C 4.96875 -4.078125 4.832031 -4.3125 4.65625 -4.5 C 4.488281 -4.695312 4.28125 -4.847656 4.03125 -4.953125 C 3.78125 -5.054688 3.5 -5.109375 3.1875 -5.109375 C 2.882812 -5.109375 2.609375 -5.054688 2.359375 -4.953125 C 2.109375 -4.847656 1.894531 -4.695312 1.71875 -4.5 C 1.539062 -4.3125 1.398438 -4.078125 1.296875 -3.796875 C 1.203125 -3.515625 1.15625 -3.203125 1.15625 -2.859375 C 1.15625 -2.503906 1.203125 -2.1875 1.296875 -1.90625 C 1.398438 -1.632812 1.539062 -1.398438 1.71875 -1.203125 C 1.894531 -1.015625 2.109375 -0.867188 2.359375 -0.765625 C 2.609375 -0.660156 2.882812 -0.609375 3.1875 -0.609375 C 3.5 -0.609375 3.78125 -0.660156 4.03125 -0.765625 C 4.28125 -0.867188 4.488281 -1.015625 4.65625 -1.203125 C 4.832031 -1.398438 4.96875 -1.632812 5.0625 -1.90625 C 5.164062 -2.1875 5.21875 -2.503906 5.21875 -2.859375 Z M 5.21875 -2.859375 "/></g></g></g><g fill="#004aad" fill-opacity="1"><g transform="translate(83.261904, 151.683356)"><g><path d="M 2.9375 -0.609375 C 3.164062 -0.609375 3.375 -0.648438 3.5625 -0.734375 C 3.75 -0.816406 3.90625 -0.925781 4.03125 -1.0625 C 4.164062 -1.207031 4.265625 -1.378906 4.328125 -1.578125 C 4.398438 -1.773438 4.4375 -1.992188 4.4375 -2.234375 L 4.4375 -5.703125 L 5.203125 -5.703125 L 5.203125 -2.234375 C 5.203125 -1.910156 5.148438 -1.609375 5.046875 -1.328125 C 4.941406 -1.046875 4.789062 -0.800781 4.59375 -0.59375 C 4.394531 -0.382812 4.15625 -0.222656 3.875 -0.109375 C 3.59375 0.00390625 3.28125 0.0625 2.9375 0.0625 C 2.582031 0.0625 2.265625 0.00390625 1.984375 -0.109375 C 1.703125 -0.222656 1.460938 -0.382812 1.265625 -0.59375 C 1.066406 -0.800781 0.914062 -1.046875 0.8125 -1.328125 C 0.707031 -1.609375 0.65625 -1.910156 0.65625 -2.234375 L 0.65625 -5.703125 L 1.421875 -5.703125 L 1.421875 -2.25 C 1.421875 -2.007812 1.453125 -1.785156 1.515625 -1.578125 C 1.585938 -1.378906 1.6875 -1.207031 1.8125 -1.0625 C 1.945312 -0.925781 2.109375 -0.816406 2.296875 -0.734375 C 2.484375 -0.648438 2.695312 -0.609375 2.9375 -0.609375 Z M 2.9375 -0.609375 "/></g></g></g><g fill="#004aad" fill-opacity="1"><g transform="translate(95.488042, 151.683356)"><g><path d="M 2.3125 -2.9375 C 2.53125 -2.9375 2.722656 -2.960938 2.890625 -3.015625 C 3.066406 -3.078125 3.210938 -3.15625 3.328125 -3.25 C 3.441406 -3.351562 3.53125 -3.472656 3.59375 -3.609375 C 3.65625 -3.753906 3.6875 -3.910156 3.6875 -4.078125 C 3.6875 -4.410156 3.570312 -4.660156 3.34375 -4.828125 C 3.125 -5.003906 2.789062 -5.09375 2.34375 -5.09375 L 1.5 -5.09375 L 1.5 -2.9375 Z M 4.953125 0 L 4.265625 0 C 4.117188 0 4.015625 -0.0507812 3.953125 -0.15625 L 2.46875 -2.203125 C 2.425781 -2.265625 2.378906 -2.304688 2.328125 -2.328125 C 2.273438 -2.359375 2.191406 -2.375 2.078125 -2.375 L 1.5 -2.375 L 1.5 0 L 0.734375 0 L 0.734375 -5.703125 L 2.34375 -5.703125 C 2.707031 -5.703125 3.019531 -5.664062 3.28125 -5.59375 C 3.539062 -5.519531 3.753906 -5.414062 3.921875 -5.28125 C 4.097656 -5.144531 4.226562 -4.976562 4.3125 -4.78125 C 4.394531 -4.582031 4.4375 -4.363281 4.4375 -4.125 C 4.4375 -3.925781 4.40625 -3.738281 4.34375 -3.5625 C 4.28125 -3.382812 4.1875 -3.222656 4.0625 -3.078125 C 3.9375 -2.941406 3.785156 -2.820312 3.609375 -2.71875 C 3.441406 -2.625 3.25 -2.554688 3.03125 -2.515625 C 3.125 -2.453125 3.207031 -2.367188 3.28125 -2.265625 Z M 4.953125 0 "/></g></g></g><g fill="#004aad" fill-opacity="1"><g transform="translate(106.846279, 151.683356)"><g/></g></g><g fill="#004aad" fill-opacity="1"><g transform="translate(115.254468, 151.683356)"><g><path d="M 2.421875 -2.75 C 2.640625 -2.75 2.832031 -2.773438 3 -2.828125 C 3.164062 -2.890625 3.304688 -2.972656 3.421875 -3.078125 C 3.535156 -3.179688 3.617188 -3.304688 3.671875 -3.453125 C 3.734375 -3.597656 3.765625 -3.757812 3.765625 -3.9375 C 3.765625 -4.300781 3.648438 -4.582031 3.421875 -4.78125 C 3.203125 -4.988281 2.867188 -5.09375 2.421875 -5.09375 L 1.5 -5.09375 L 1.5 -2.75 Z M 2.421875 -5.703125 C 2.773438 -5.703125 3.082031 -5.660156 3.34375 -5.578125 C 3.613281 -5.492188 3.835938 -5.375 4.015625 -5.21875 C 4.191406 -5.070312 4.320312 -4.890625 4.40625 -4.671875 C 4.5 -4.453125 4.546875 -4.207031 4.546875 -3.9375 C 4.546875 -3.675781 4.5 -3.429688 4.40625 -3.203125 C 4.3125 -2.984375 4.171875 -2.796875 3.984375 -2.640625 C 3.804688 -2.484375 3.585938 -2.359375 3.328125 -2.265625 C 3.066406 -2.179688 2.765625 -2.140625 2.421875 -2.140625 L 1.5 -2.140625 L 1.5 0 L 0.734375 0 L 0.734375 -5.703125 Z M 2.421875 -5.703125 "/></g></g></g><g fill="#004aad" fill-opacity="1"><g transform="translate(126.405687, 151.683356)"><g><path d="M 1.5 0 L 0.734375 0 L 0.734375 -5.703125 L 1.5 -5.703125 Z M 1.5 0 "/></g></g></g><g fill="#004aad" fill-opacity="1"><g transform="translate(135.004978, 151.683356)"><g><path d="M 4.734375 -1.171875 C 4.773438 -1.171875 4.8125 -1.15625 4.84375 -1.125 L 5.15625 -0.796875 C 4.925781 -0.523438 4.644531 -0.3125 4.3125 -0.15625 C 3.976562 -0.0078125 3.570312 0.0625 3.09375 0.0625 C 2.6875 0.0625 2.316406 -0.00390625 1.984375 -0.140625 C 1.648438 -0.285156 1.363281 -0.484375 1.125 -0.734375 C 0.882812 -0.992188 0.695312 -1.300781 0.5625 -1.65625 C 0.4375 -2.019531 0.375 -2.421875 0.375 -2.859375 C 0.375 -3.285156 0.441406 -3.675781 0.578125 -4.03125 C 0.710938 -4.394531 0.898438 -4.703125 1.140625 -4.953125 C 1.390625 -5.210938 1.6875 -5.414062 2.03125 -5.5625 C 2.375 -5.707031 2.753906 -5.78125 3.171875 -5.78125 C 3.578125 -5.78125 3.9375 -5.710938 4.25 -5.578125 C 4.5625 -5.453125 4.832031 -5.273438 5.0625 -5.046875 L 4.8125 -4.6875 C 4.800781 -4.664062 4.78125 -4.644531 4.75 -4.625 C 4.726562 -4.613281 4.695312 -4.609375 4.65625 -4.609375 C 4.601562 -4.609375 4.539062 -4.628906 4.46875 -4.671875 C 4.40625 -4.722656 4.316406 -4.78125 4.203125 -4.84375 C 4.085938 -4.914062 3.945312 -4.976562 3.78125 -5.03125 C 3.613281 -5.082031 3.410156 -5.109375 3.171875 -5.109375 C 2.867188 -5.109375 2.597656 -5.054688 2.359375 -4.953125 C 2.117188 -4.847656 1.910156 -4.695312 1.734375 -4.5 C 1.554688 -4.3125 1.414062 -4.078125 1.3125 -3.796875 C 1.21875 -3.515625 1.171875 -3.203125 1.171875 -2.859375 C 1.171875 -2.492188 1.21875 -2.171875 1.3125 -1.890625 C 1.414062 -1.617188 1.554688 -1.382812 1.734375 -1.1875 C 1.910156 -1 2.117188 -0.851562 2.359375 -0.75 C 2.597656 -0.65625 2.859375 -0.609375 3.140625 -0.609375 C 3.316406 -0.609375 3.472656 -0.613281 3.609375 -0.625 C 3.742188 -0.644531 3.867188 -0.675781 3.984375 -0.71875 C 4.097656 -0.757812 4.203125 -0.8125 4.296875 -0.875 C 4.398438 -0.945312 4.503906 -1.03125 4.609375 -1.125 C 4.648438 -1.15625 4.691406 -1.171875 4.734375 -1.171875 Z M 4.734375 -1.171875 "/></g></g></g><g fill="#004aad" fill-opacity="1"><g transform="translate(146.693655, 151.683356)"><g><path d="M 1.5 -3.203125 L 1.78125 -3.203125 C 1.882812 -3.203125 1.96875 -3.210938 2.03125 -3.234375 C 2.09375 -3.265625 2.148438 -3.3125 2.203125 -3.375 L 4.09375 -5.53125 C 4.15625 -5.59375 4.210938 -5.632812 4.265625 -5.65625 C 4.328125 -5.6875 4.398438 -5.703125 4.484375 -5.703125 L 5.140625 -5.703125 L 2.953125 -3.25 C 2.898438 -3.1875 2.847656 -3.132812 2.796875 -3.09375 C 2.753906 -3.050781 2.707031 -3.019531 2.65625 -3 C 2.71875 -2.96875 2.78125 -2.925781 2.84375 -2.875 C 2.90625 -2.832031 2.960938 -2.773438 3.015625 -2.703125 L 5.28125 0 L 4.625 0 C 4.570312 0 4.523438 0 4.484375 0 C 4.453125 -0.0078125 4.421875 -0.0195312 4.390625 -0.03125 C 4.367188 -0.0507812 4.347656 -0.0703125 4.328125 -0.09375 C 4.304688 -0.113281 4.285156 -0.132812 4.265625 -0.15625 L 2.296875 -2.4375 C 2.242188 -2.5 2.1875 -2.539062 2.125 -2.5625 C 2.0625 -2.59375 1.96875 -2.609375 1.84375 -2.609375 L 1.5 -2.609375 L 1.5 0 L 0.734375 0 L 0.734375 -5.703125 L 1.5 -5.703125 Z M 1.5 -3.203125 "/></g></g></g><g fill="#004aad" fill-opacity="1"><g transform="translate(158.338544, 151.683356)"><g><path d="M 1.421875 -5.703125 L 1.421875 -3.4375 C 1.421875 -3.3125 1.414062 -3.191406 1.40625 -3.078125 C 1.40625 -2.960938 1.398438 -2.847656 1.390625 -2.734375 C 1.378906 -2.617188 1.367188 -2.5 1.359375 -2.375 C 1.347656 -2.257812 1.332031 -2.132812 1.3125 -2 L 0.84375 -2 C 0.820312 -2.132812 0.804688 -2.257812 0.796875 -2.375 C 0.785156 -2.5 0.773438 -2.617188 0.765625 -2.734375 C 0.753906 -2.847656 0.742188 -2.960938 0.734375 -3.078125 C 0.734375 -3.191406 0.734375 -3.3125 0.734375 -3.4375 L 0.734375 -5.703125 Z M 0.5625 -0.4375 C 0.5625 -0.507812 0.570312 -0.570312 0.59375 -0.625 C 0.625 -0.6875 0.660156 -0.738281 0.703125 -0.78125 C 0.753906 -0.832031 0.804688 -0.867188 0.859375 -0.890625 C 0.921875 -0.921875 0.988281 -0.9375 1.0625 -0.9375 C 1.132812 -0.9375 1.195312 -0.921875 1.25 -0.890625 C 1.3125 -0.867188 1.363281 -0.832031 1.40625 -0.78125 C 1.457031 -0.738281 1.492188 -0.6875 1.515625 -0.625 C 1.546875 -0.570312 1.5625 -0.507812 1.5625 -0.4375 C 1.5625 -0.363281 1.546875 -0.296875 1.515625 -0.234375 C 1.492188 -0.179688 1.457031 -0.128906 1.40625 -0.078125 C 1.363281 -0.0351562 1.3125 -0.00390625 1.25 0.015625 C 1.195312 0.046875 1.132812 0.0625 1.0625 0.0625 C 0.988281 0.0625 0.921875 0.046875 0.859375 0.015625 C 0.804688 -0.00390625 0.753906 -0.0351562 0.703125 -0.078125 C 0.660156 -0.128906 0.625 -0.179688 0.59375 -0.234375 C 0.570312 -0.296875 0.5625 -0.363281 0.5625 -0.4375 Z M 0.5625 -0.4375 "/></g></g></g></svg>