<svg xmlns="http://www.w3.org/2000/svg" xmlns:xlink="http://www.w3.org/1999/xlink" width="500" zoomAndPan="magnify" viewBox="0 0 375 374.999991" height="500" preserveAspectRatio="xMidYMid meet" version="1.0"><defs><g/><clipPath id="7ababb8589"><path d="M 145.070312 129 L 165 129 L 165 161 L 145.070312 161 Z M 145.070312 129 " clip-rule="nonzero"/></clipPath><clipPath id="9cabbddfda"><path d="M 208 156 L 229.820312 156 L 229.820312 190 L 208 190 Z M 208 156 " clip-rule="nonzero"/></clipPath><clipPath id="5a759b7d6b"><path d="M 178 127 L 229.820312 127 L 229.820312 173 L 178 173 Z M 178 127 " clip-rule="nonzero"/></clipPath><clipPath id="cd8a826fc6"><path d="M 145.070312 157 L 158 157 L 158 178 L 145.070312 178 Z M 145.070312 157 " clip-rule="nonzero"/></clipPath><clipPath id="a02d801f34"><path d="M 145.070312 161 L 188 161 L 188 197 L 145.070312 197 Z M 145.070312 161 " clip-rule="nonzero"/></clipPath><clipPath id="8b4e8e35ce"><path d="M 155 113.5 L 183 113.5 L 183 158 L 155 158 Z M 155 113.5 " clip-rule="nonzero"/></clipPath></defs><g clip-path="url(#7ababb8589)"><path fill="#004aad" d="M 162.507812 160.40625 C 162.773438 160.582031 163.121094 160.550781 163.351562 160.332031 L 164.492188 159.230469 C 164.457031 159.183594 164.417969 159.144531 164.386719 159.101562 C 161.023438 154.40625 153.503906 142.679688 152.191406 130.320312 C 152.132812 129.804688 151.5625 129.546875 151.128906 129.835938 C 147.476562 132.296875 145.074219 136.46875 145.074219 141.203125 L 145.074219 148.5 C 145.074219 148.726562 145.1875 148.941406 145.375 149.0625 L 162.507812 160.40625 " fill-opacity="1" fill-rule="nonzero"/></g><g clip-path="url(#9cabbddfda)"><path fill="#5db3ff" d="M 228.785156 156.84375 L 209.195312 175.757812 C 208.882812 176.058594 208.929688 176.566406 209.289062 176.808594 L 227.617188 188.964844 C 227.953125 189.191406 228.425781 189.074219 228.597656 188.710938 C 229.449219 186.925781 229.929688 184.925781 229.929688 182.8125 L 229.929688 157.328125 C 229.929688 156.734375 229.214844 156.429688 228.785156 156.84375 " fill-opacity="1" fill-rule="nonzero"/></g><g clip-path="url(#5a759b7d6b)"><path fill="#ffde59" d="M 216.222656 127.496094 L 207.691406 127.496094 C 207.515625 127.496094 207.351562 127.5625 207.222656 127.683594 L 178.511719 155.402344 C 178.203125 155.703125 178.25 156.210938 178.609375 156.449219 L 202.175781 172.089844 C 202.441406 172.261719 202.792969 172.230469 203.019531 172.011719 L 216.21875 159.265625 C 216.53125 158.964844 216.484375 158.453125 216.125 158.214844 L 204.433594 150.476562 C 204.074219 150.238281 204.027344 149.726562 204.335938 149.429688 L 208.488281 145.421875 C 208.714844 145.199219 209.066406 145.167969 209.332031 145.34375 L 221.519531 153.414062 C 221.785156 153.589844 222.132812 153.558594 222.363281 153.335938 L 229.722656 146.230469 C 229.855469 146.101562 229.929688 145.925781 229.929688 145.742188 L 229.929688 141.203125 C 229.929688 133.632812 223.792969 127.496094 216.222656 127.496094 " fill-opacity="1" fill-rule="nonzero"/></g><path fill="#5db3ff" d="M 185.265625 139.171875 L 196.160156 128.65625 C 196.597656 128.234375 196.296875 127.496094 195.691406 127.496094 L 186.707031 127.496094 C 186.347656 127.496094 186.058594 127.777344 186.042969 128.136719 C 185.886719 131.660156 185.175781 135.15625 184.160156 138.492188 C 183.953125 139.15625 184.765625 139.65625 185.265625 139.171875 " fill-opacity="1" fill-rule="nonzero"/><g clip-path="url(#cd8a826fc6)"><path fill="#ffde59" d="M 157.210938 166.257812 C 157.519531 165.957031 157.472656 165.449219 157.113281 165.210938 L 146.121094 157.933594 C 145.671875 157.636719 145.074219 157.957031 145.074219 158.496094 L 145.074219 176.386719 C 145.074219 176.980469 145.789062 177.285156 146.21875 176.871094 L 157.210938 166.257812 " fill-opacity="1" fill-rule="nonzero"/></g><path fill="#004aad" d="M 194.710938 175.515625 C 194.449219 175.34375 194.097656 175.375 193.871094 175.59375 L 173.394531 195.363281 C 172.957031 195.785156 173.257812 196.523438 173.863281 196.523438 L 192.183594 196.523438 C 192.628906 196.523438 193.054688 196.71875 193.34375 197.058594 L 204.160156 209.75 C 205.082031 210.828125 206.847656 210.175781 206.847656 208.761719 L 206.847656 198.046875 C 206.847656 197.203125 207.53125 196.523438 208.371094 196.523438 L 216.222656 196.523438 C 218.417969 196.523438 220.488281 195.996094 222.328125 195.074219 C 222.796875 194.839844 222.851562 194.1875 222.414062 193.898438 L 194.710938 175.515625 " fill-opacity="1" fill-rule="nonzero"/><g clip-path="url(#a02d801f34)"><path fill="#5db3ff" d="M 187.597656 170.796875 L 173.214844 161.253906 C 172.949219 161.078125 172.601562 161.109375 172.371094 161.332031 L 146.0625 186.734375 C 145.867188 186.917969 145.796875 187.203125 145.886719 187.457031 C 147.789062 192.742188 152.84375 196.523438 158.78125 196.523438 L 161.863281 196.523438 C 162.039062 196.523438 162.207031 196.453125 162.332031 196.332031 L 187.695312 171.84375 C 188.003906 171.546875 187.957031 171.035156 187.597656 170.796875 " fill-opacity="1" fill-rule="nonzero"/></g><g clip-path="url(#8b4e8e35ce)"><path fill="#ffde59" d="M 169.035156 131.785156 C 166.222656 131.785156 163.9375 129.503906 163.9375 126.691406 C 163.9375 123.875 166.222656 121.59375 169.035156 121.59375 C 171.851562 121.59375 174.132812 123.875 174.132812 126.691406 C 174.132812 129.503906 171.851562 131.785156 169.035156 131.785156 Z M 155.9375 127.425781 C 156.257812 139.71875 164.269531 152.140625 167.601562 156.796875 C 168.304688 157.777344 169.757812 157.789062 170.460938 156.804688 C 173.859375 152.0625 182.140625 139.214844 182.140625 126.671875 C 182.140625 119.433594 176.277344 113.566406 169.039062 113.5625 C 161.386719 113.5625 155.75 120.121094 155.9375 127.425781 " fill-opacity="1" fill-rule="nonzero"/></g><g fill="#ffde59" fill-opacity="1"><g transform="translate(109.405449, 245.543437)"><g><path d="M 15.109375 0 L 1.921875 0 L 1.921875 -21.546875 L 5.984375 -21.546875 L 5.984375 -3.640625 L 15.109375 -3.640625 Z M 15.109375 0 "/></g></g></g><g fill="#ffde59" fill-opacity="1"><g transform="translate(126.224517, 245.543437)"><g><path d="M 11.546875 0.390625 C 9.773438 0.390625 8.226562 0.09375 6.90625 -0.5 C 5.59375 -1.101562 4.507812 -1.921875 3.65625 -2.953125 C 2.800781 -3.992188 2.160156 -5.1875 1.734375 -6.53125 C 1.304688 -7.882812 1.09375 -9.300781 1.09375 -10.78125 C 1.09375 -12.269531 1.304688 -13.6875 1.734375 -15.03125 C 2.160156 -16.375 2.800781 -17.5625 3.65625 -18.59375 C 4.507812 -19.632812 5.59375 -20.453125 6.90625 -21.046875 C 8.226562 -21.640625 9.773438 -21.9375 11.546875 -21.9375 C 13.335938 -21.9375 14.890625 -21.640625 16.203125 -21.046875 C 17.523438 -20.453125 18.613281 -19.632812 19.46875 -18.59375 C 20.320312 -17.5625 20.957031 -16.375 21.375 -15.03125 C 21.800781 -13.6875 22.015625 -12.269531 22.015625 -10.78125 C 22.015625 -9.300781 21.800781 -7.882812 21.375 -6.53125 C 20.957031 -5.1875 20.320312 -3.992188 19.46875 -2.953125 C 18.613281 -1.921875 17.523438 -1.101562 16.203125 -0.5 C 14.890625 0.09375 13.335938 0.390625 11.546875 0.390625 Z M 11.546875 -3.25 C 12.878906 -3.25 14.003906 -3.5625 14.921875 -4.1875 C 15.847656 -4.820312 16.554688 -5.707031 17.046875 -6.84375 C 17.535156 -7.988281 17.78125 -9.300781 17.78125 -10.78125 C 17.78125 -12.269531 17.535156 -13.570312 17.046875 -14.6875 C 16.554688 -15.8125 15.847656 -16.6875 14.921875 -17.3125 C 14.003906 -17.945312 12.878906 -18.265625 11.546875 -18.265625 C 10.242188 -18.265625 9.125 -17.945312 8.1875 -17.3125 C 7.257812 -16.6875 6.550781 -15.8125 6.0625 -14.6875 C 5.582031 -13.570312 5.34375 -12.269531 5.34375 -10.78125 C 5.34375 -9.300781 5.582031 -7.988281 6.0625 -6.84375 C 6.550781 -5.707031 7.257812 -4.820312 8.1875 -4.1875 C 9.125 -3.5625 10.242188 -3.25 11.546875 -3.25 Z M 11.546875 -3.25 "/></g></g></g><g fill="#ffde59" fill-opacity="1"><g transform="translate(150.775531, 245.543437)"><g><path d="M 11.546875 0.390625 C 9.753906 0.390625 8.203125 0.09375 6.890625 -0.5 C 5.585938 -1.101562 4.507812 -1.921875 3.65625 -2.953125 C 2.800781 -3.992188 2.160156 -5.1875 1.734375 -6.53125 C 1.304688 -7.882812 1.09375 -9.300781 1.09375 -10.78125 C 1.09375 -12.269531 1.304688 -13.6875 1.734375 -15.03125 C 2.160156 -16.375 2.800781 -17.5625 3.65625 -18.59375 C 4.507812 -19.632812 5.585938 -20.453125 6.890625 -21.046875 C 8.203125 -21.640625 9.753906 -21.9375 11.546875 -21.9375 C 13.316406 -21.9375 14.847656 -21.632812 16.140625 -21.03125 C 17.441406 -20.425781 18.476562 -19.585938 19.25 -18.515625 C 20.019531 -17.441406 20.503906 -16.203125 20.703125 -14.796875 L 16.265625 -14.796875 C 16.078125 -15.941406 15.546875 -16.8125 14.671875 -17.40625 C 13.796875 -18 12.71875 -18.296875 11.4375 -18.296875 C 10.113281 -18.296875 9 -17.976562 8.09375 -17.34375 C 7.195312 -16.71875 6.515625 -15.835938 6.046875 -14.703125 C 5.578125 -13.578125 5.34375 -12.269531 5.34375 -10.78125 C 5.34375 -9.300781 5.578125 -7.988281 6.046875 -6.84375 C 6.515625 -5.707031 7.195312 -4.820312 8.09375 -4.1875 C 9 -3.5625 10.113281 -3.25 11.4375 -3.25 C 12.71875 -3.25 13.789062 -3.554688 14.65625 -4.171875 C 15.519531 -4.796875 16.054688 -5.738281 16.265625 -7 L 20.703125 -7 C 20.503906 -5.507812 20.019531 -4.207031 19.25 -3.09375 C 18.476562 -1.988281 17.441406 -1.128906 16.140625 -0.515625 C 14.847656 0.0859375 13.316406 0.390625 11.546875 0.390625 Z M 11.546875 0.390625 "/></g></g></g><g fill="#ffde59" fill-opacity="1"><g transform="translate(173.830951, 245.543437)"><g><path d="M 4.46875 0 L 0.203125 0 L 7.796875 -21.546875 L 12.25 -21.546875 L 19.84375 0 L 15.578125 0 L 14.125 -4.4375 L 5.90625 -4.4375 Z M 10.015625 -17.109375 L 7.0625 -7.984375 L 12.984375 -7.984375 Z M 10.015625 -17.109375 "/></g></g></g><g fill="#ffde59" fill-opacity="1"><g transform="translate(195.277904, 245.543437)"><g><path d="M 10.921875 0 L 6.859375 0 L 6.859375 -17.90625 L 0.28125 -17.90625 L 0.28125 -21.546875 L 17.484375 -21.546875 L 17.484375 -17.90625 L 10.921875 -17.90625 Z M 10.921875 0 "/></g></g></g><g fill="#ffde59" fill-opacity="1"><g transform="translate(214.467357, 245.543437)"><g><path d="M 5.984375 0 L 1.921875 0 L 1.921875 -21.546875 L 5.984375 -21.546875 Z M 5.984375 0 "/></g></g></g><g fill="#ffde59" fill-opacity="1"><g transform="translate(223.780226, 245.543437)"><g><path d="M 11.546875 0.390625 C 9.773438 0.390625 8.226562 0.09375 6.90625 -0.5 C 5.59375 -1.101562 4.507812 -1.921875 3.65625 -2.953125 C 2.800781 -3.992188 2.160156 -5.1875 1.734375 -6.53125 C 1.304688 -7.882812 1.09375 -9.300781 1.09375 -10.78125 C 1.09375 -12.269531 1.304688 -13.6875 1.734375 -15.03125 C 2.160156 -16.375 2.800781 -17.5625 3.65625 -18.59375 C 4.507812 -19.632812 5.59375 -20.453125 6.90625 -21.046875 C 8.226562 -21.640625 9.773438 -21.9375 11.546875 -21.9375 C 13.335938 -21.9375 14.890625 -21.640625 16.203125 -21.046875 C 17.523438 -20.453125 18.613281 -19.632812 19.46875 -18.59375 C 20.320312 -17.5625 20.957031 -16.375 21.375 -15.03125 C 21.800781 -13.6875 22.015625 -12.269531 22.015625 -10.78125 C 22.015625 -9.300781 21.800781 -7.882812 21.375 -6.53125 C 20.957031 -5.1875 20.320312 -3.992188 19.46875 -2.953125 C 18.613281 -1.921875 17.523438 -1.101562 16.203125 -0.5 C 14.890625 0.09375 13.335938 0.390625 11.546875 0.390625 Z M 11.546875 -3.25 C 12.878906 -3.25 14.003906 -3.5625 14.921875 -4.1875 C 15.847656 -4.820312 16.554688 -5.707031 17.046875 -6.84375 C 17.535156 -7.988281 17.78125 -9.300781 17.78125 -10.78125 C 17.78125 -12.269531 17.535156 -13.570312 17.046875 -14.6875 C 16.554688 -15.8125 15.847656 -16.6875 14.921875 -17.3125 C 14.003906 -17.945312 12.878906 -18.265625 11.546875 -18.265625 C 10.242188 -18.265625 9.125 -17.945312 8.1875 -17.3125 C 7.257812 -16.6875 6.550781 -15.8125 6.0625 -14.6875 C 5.582031 -13.570312 5.34375 -12.269531 5.34375 -10.78125 C 5.34375 -9.300781 5.582031 -7.988281 6.0625 -6.84375 C 6.550781 -5.707031 7.257812 -4.820312 8.1875 -4.1875 C 9.125 -3.5625 10.242188 -3.25 11.546875 -3.25 Z M 11.546875 -3.25 "/></g></g></g><g fill="#ffde59" fill-opacity="1"><g transform="translate(248.331246, 245.543437)"><g><path d="M 5.984375 0 L 1.921875 0 L 1.921875 -21.546875 L 6.5 -21.546875 L 15.328125 -6.125 L 15.328125 -21.546875 L 19.390625 -21.546875 L 19.390625 0 L 14.796875 0 L 5.984375 -15.4375 Z M 5.984375 0 "/></g></g></g><g fill="#004aad" fill-opacity="1"><g transform="translate(119.072269, 265.58334)"><g><path d="M 4.75 -1.1875 C 4.789062 -1.1875 4.832031 -1.164062 4.875 -1.125 L 5.171875 -0.796875 C 4.941406 -0.523438 4.65625 -0.3125 4.3125 -0.15625 C 3.976562 -0.0078125 3.578125 0.0625 3.109375 0.0625 C 2.691406 0.0625 2.316406 -0.00390625 1.984375 -0.140625 C 1.648438 -0.285156 1.363281 -0.488281 1.125 -0.75 C 0.882812 -1.007812 0.695312 -1.316406 0.5625 -1.671875 C 0.4375 -2.035156 0.375 -2.429688 0.375 -2.859375 C 0.375 -3.296875 0.441406 -3.691406 0.578125 -4.046875 C 0.710938 -4.410156 0.90625 -4.722656 1.15625 -4.984375 C 1.40625 -5.242188 1.703125 -5.441406 2.046875 -5.578125 C 2.390625 -5.722656 2.769531 -5.796875 3.1875 -5.796875 C 3.59375 -5.796875 3.953125 -5.726562 4.265625 -5.59375 C 4.578125 -5.46875 4.851562 -5.289062 5.09375 -5.0625 L 4.828125 -4.71875 C 4.816406 -4.6875 4.796875 -4.660156 4.765625 -4.640625 C 4.742188 -4.628906 4.710938 -4.625 4.671875 -4.625 C 4.617188 -4.625 4.554688 -4.648438 4.484375 -4.703125 C 4.421875 -4.753906 4.332031 -4.8125 4.21875 -4.875 C 4.101562 -4.9375 3.960938 -4.992188 3.796875 -5.046875 C 3.628906 -5.097656 3.425781 -5.125 3.1875 -5.125 C 2.882812 -5.125 2.609375 -5.070312 2.359375 -4.96875 C 2.117188 -4.863281 1.910156 -4.710938 1.734375 -4.515625 C 1.554688 -4.328125 1.414062 -4.09375 1.3125 -3.8125 C 1.21875 -3.53125 1.171875 -3.210938 1.171875 -2.859375 C 1.171875 -2.503906 1.222656 -2.1875 1.328125 -1.90625 C 1.429688 -1.625 1.570312 -1.382812 1.75 -1.1875 C 1.925781 -1 2.132812 -0.851562 2.375 -0.75 C 2.613281 -0.65625 2.875 -0.609375 3.15625 -0.609375 C 3.320312 -0.609375 3.472656 -0.613281 3.609375 -0.625 C 3.753906 -0.644531 3.882812 -0.675781 4 -0.71875 C 4.113281 -0.769531 4.21875 -0.828125 4.3125 -0.890625 C 4.414062 -0.953125 4.519531 -1.03125 4.625 -1.125 C 4.664062 -1.164062 4.707031 -1.1875 4.75 -1.1875 Z M 4.75 -1.1875 "/></g></g></g><g fill="#004aad" fill-opacity="1"><g transform="translate(130.816339, 265.58334)"><g><path d="M 5.375 -5.734375 L 5.375 0 L 4.59375 0 L 4.59375 -2.609375 L 1.515625 -2.609375 L 1.515625 0 L 0.734375 0 L 0.734375 -5.734375 L 1.515625 -5.734375 L 1.515625 -3.171875 L 4.59375 -3.171875 L 4.59375 -5.734375 Z M 5.375 -5.734375 "/></g></g></g><g fill="#004aad" fill-opacity="1"><g transform="translate(143.324419, 265.58334)"><g><path d="M 6.03125 -2.859375 C 6.03125 -2.429688 5.960938 -2.035156 5.828125 -1.671875 C 5.691406 -1.316406 5.5 -1.007812 5.25 -0.75 C 5 -0.5 4.695312 -0.300781 4.34375 -0.15625 C 4 -0.0078125 3.617188 0.0625 3.203125 0.0625 C 2.773438 0.0625 2.390625 -0.0078125 2.046875 -0.15625 C 1.703125 -0.300781 1.40625 -0.5 1.15625 -0.75 C 0.90625 -1.007812 0.710938 -1.316406 0.578125 -1.671875 C 0.441406 -2.035156 0.375 -2.429688 0.375 -2.859375 C 0.375 -3.296875 0.441406 -3.691406 0.578125 -4.046875 C 0.710938 -4.398438 0.90625 -4.707031 1.15625 -4.96875 C 1.40625 -5.226562 1.703125 -5.429688 2.046875 -5.578125 C 2.390625 -5.722656 2.773438 -5.796875 3.203125 -5.796875 C 3.617188 -5.796875 4 -5.722656 4.34375 -5.578125 C 4.695312 -5.429688 5 -5.226562 5.25 -4.96875 C 5.5 -4.707031 5.691406 -4.398438 5.828125 -4.046875 C 5.960938 -3.691406 6.03125 -3.296875 6.03125 -2.859375 Z M 5.234375 -2.859375 C 5.234375 -3.210938 5.179688 -3.53125 5.078125 -3.8125 C 4.984375 -4.09375 4.847656 -4.328125 4.671875 -4.515625 C 4.503906 -4.710938 4.289062 -4.863281 4.03125 -4.96875 C 3.78125 -5.070312 3.503906 -5.125 3.203125 -5.125 C 2.890625 -5.125 2.609375 -5.070312 2.359375 -4.96875 C 2.109375 -4.863281 1.894531 -4.710938 1.71875 -4.515625 C 1.539062 -4.328125 1.40625 -4.09375 1.3125 -3.8125 C 1.21875 -3.53125 1.171875 -3.210938 1.171875 -2.859375 C 1.171875 -2.515625 1.21875 -2.203125 1.3125 -1.921875 C 1.40625 -1.640625 1.539062 -1.398438 1.71875 -1.203125 C 1.894531 -1.015625 2.109375 -0.867188 2.359375 -0.765625 C 2.609375 -0.660156 2.890625 -0.609375 3.203125 -0.609375 C 3.503906 -0.609375 3.78125 -0.660156 4.03125 -0.765625 C 4.289062 -0.867188 4.503906 -1.015625 4.671875 -1.203125 C 4.847656 -1.398438 4.984375 -1.640625 5.078125 -1.921875 C 5.179688 -2.203125 5.234375 -2.515625 5.234375 -2.859375 Z M 5.234375 -2.859375 "/></g></g></g><g fill="#004aad" fill-opacity="1"><g transform="translate(156.128502, 265.58334)"><g><path d="M 6.03125 -2.859375 C 6.03125 -2.429688 5.960938 -2.035156 5.828125 -1.671875 C 5.691406 -1.316406 5.5 -1.007812 5.25 -0.75 C 5 -0.5 4.695312 -0.300781 4.34375 -0.15625 C 4 -0.0078125 3.617188 0.0625 3.203125 0.0625 C 2.773438 0.0625 2.390625 -0.0078125 2.046875 -0.15625 C 1.703125 -0.300781 1.40625 -0.5 1.15625 -0.75 C 0.90625 -1.007812 0.710938 -1.316406 0.578125 -1.671875 C 0.441406 -2.035156 0.375 -2.429688 0.375 -2.859375 C 0.375 -3.296875 0.441406 -3.691406 0.578125 -4.046875 C 0.710938 -4.398438 0.90625 -4.707031 1.15625 -4.96875 C 1.40625 -5.226562 1.703125 -5.429688 2.046875 -5.578125 C 2.390625 -5.722656 2.773438 -5.796875 3.203125 -5.796875 C 3.617188 -5.796875 4 -5.722656 4.34375 -5.578125 C 4.695312 -5.429688 5 -5.226562 5.25 -4.96875 C 5.5 -4.707031 5.691406 -4.398438 5.828125 -4.046875 C 5.960938 -3.691406 6.03125 -3.296875 6.03125 -2.859375 Z M 5.234375 -2.859375 C 5.234375 -3.210938 5.179688 -3.53125 5.078125 -3.8125 C 4.984375 -4.09375 4.847656 -4.328125 4.671875 -4.515625 C 4.503906 -4.710938 4.289062 -4.863281 4.03125 -4.96875 C 3.78125 -5.070312 3.503906 -5.125 3.203125 -5.125 C 2.890625 -5.125 2.609375 -5.070312 2.359375 -4.96875 C 2.109375 -4.863281 1.894531 -4.710938 1.71875 -4.515625 C 1.539062 -4.328125 1.40625 -4.09375 1.3125 -3.8125 C 1.21875 -3.53125 1.171875 -3.210938 1.171875 -2.859375 C 1.171875 -2.515625 1.21875 -2.203125 1.3125 -1.921875 C 1.40625 -1.640625 1.539062 -1.398438 1.71875 -1.203125 C 1.894531 -1.015625 2.109375 -0.867188 2.359375 -0.765625 C 2.609375 -0.660156 2.890625 -0.609375 3.203125 -0.609375 C 3.503906 -0.609375 3.78125 -0.660156 4.03125 -0.765625 C 4.289062 -0.867188 4.503906 -1.015625 4.671875 -1.203125 C 4.847656 -1.398438 4.984375 -1.640625 5.078125 -1.921875 C 5.179688 -2.203125 5.234375 -2.515625 5.234375 -2.859375 Z M 5.234375 -2.859375 "/></g></g></g><g fill="#004aad" fill-opacity="1"><g transform="translate(168.932582, 265.58334)"><g><path d="M 3.65625 -4.84375 C 3.632812 -4.800781 3.609375 -4.769531 3.578125 -4.75 C 3.554688 -4.726562 3.523438 -4.71875 3.484375 -4.71875 C 3.441406 -4.71875 3.390625 -4.738281 3.328125 -4.78125 C 3.265625 -4.832031 3.1875 -4.882812 3.09375 -4.9375 C 3 -4.988281 2.882812 -5.035156 2.75 -5.078125 C 2.625 -5.128906 2.472656 -5.15625 2.296875 -5.15625 C 2.117188 -5.15625 1.960938 -5.128906 1.828125 -5.078125 C 1.703125 -5.035156 1.59375 -4.972656 1.5 -4.890625 C 1.414062 -4.804688 1.347656 -4.710938 1.296875 -4.609375 C 1.253906 -4.503906 1.234375 -4.390625 1.234375 -4.265625 C 1.234375 -4.097656 1.269531 -3.960938 1.34375 -3.859375 C 1.425781 -3.753906 1.53125 -3.664062 1.65625 -3.59375 C 1.789062 -3.519531 1.9375 -3.453125 2.09375 -3.390625 C 2.257812 -3.335938 2.425781 -3.28125 2.59375 -3.21875 C 2.769531 -3.164062 2.941406 -3.101562 3.109375 -3.03125 C 3.273438 -2.957031 3.421875 -2.863281 3.546875 -2.75 C 3.679688 -2.632812 3.785156 -2.492188 3.859375 -2.328125 C 3.941406 -2.171875 3.984375 -1.972656 3.984375 -1.734375 C 3.984375 -1.484375 3.9375 -1.25 3.84375 -1.03125 C 3.757812 -0.8125 3.632812 -0.617188 3.46875 -0.453125 C 3.3125 -0.296875 3.113281 -0.171875 2.875 -0.078125 C 2.632812 0.015625 2.363281 0.0625 2.0625 0.0625 C 1.6875 0.0625 1.347656 -0.00390625 1.046875 -0.140625 C 0.742188 -0.273438 0.484375 -0.457031 0.265625 -0.6875 L 0.484375 -1.046875 C 0.503906 -1.078125 0.53125 -1.101562 0.5625 -1.125 C 0.59375 -1.144531 0.628906 -1.15625 0.671875 -1.15625 C 0.703125 -1.15625 0.738281 -1.140625 0.78125 -1.109375 C 0.832031 -1.085938 0.882812 -1.050781 0.9375 -1 C 0.988281 -0.957031 1.050781 -0.910156 1.125 -0.859375 C 1.195312 -0.816406 1.28125 -0.769531 1.375 -0.71875 C 1.46875 -0.675781 1.570312 -0.640625 1.6875 -0.609375 C 1.800781 -0.585938 1.929688 -0.578125 2.078125 -0.578125 C 2.265625 -0.578125 2.429688 -0.601562 2.578125 -0.65625 C 2.722656 -0.707031 2.84375 -0.78125 2.9375 -0.875 C 3.039062 -0.96875 3.117188 -1.078125 3.171875 -1.203125 C 3.222656 -1.328125 3.25 -1.46875 3.25 -1.625 C 3.25 -1.800781 3.207031 -1.941406 3.125 -2.046875 C 3.050781 -2.160156 2.945312 -2.253906 2.8125 -2.328125 C 2.6875 -2.398438 2.539062 -2.460938 2.375 -2.515625 C 2.21875 -2.566406 2.050781 -2.617188 1.875 -2.671875 C 1.707031 -2.734375 1.539062 -2.800781 1.375 -2.875 C 1.207031 -2.945312 1.0625 -3.039062 0.9375 -3.15625 C 0.8125 -3.269531 0.707031 -3.410156 0.625 -3.578125 C 0.550781 -3.753906 0.515625 -3.96875 0.515625 -4.21875 C 0.515625 -4.425781 0.550781 -4.625 0.625 -4.8125 C 0.707031 -5 0.820312 -5.164062 0.96875 -5.3125 C 1.125 -5.457031 1.3125 -5.570312 1.53125 -5.65625 C 1.75 -5.75 2 -5.796875 2.28125 -5.796875 C 2.601562 -5.796875 2.894531 -5.742188 3.15625 -5.640625 C 3.414062 -5.535156 3.648438 -5.390625 3.859375 -5.203125 Z M 3.65625 -4.84375 "/></g></g></g><g fill="#004aad" fill-opacity="1"><g transform="translate(179.67264, 265.58334)"><g><path d="M 4.265625 -0.625 L 4.265625 0 L 0.734375 0 L 0.734375 -5.734375 L 4.265625 -5.734375 L 4.265625 -5.09375 L 1.515625 -5.09375 L 1.515625 -3.203125 L 3.734375 -3.203125 L 3.734375 -2.59375 L 1.515625 -2.59375 L 1.515625 -0.625 Z M 4.265625 -0.625 "/></g></g></g><g fill="#004aad" fill-opacity="1"><g transform="translate(190.692708, 265.58334)"><g/></g></g><g fill="#004aad" fill-opacity="1"><g transform="translate(199.140746, 265.58334)"><g><path d="M 3.78125 -2.125 L 2.875 -4.453125 C 2.851562 -4.523438 2.828125 -4.609375 2.796875 -4.703125 C 2.765625 -4.796875 2.734375 -4.894531 2.703125 -5 C 2.648438 -4.78125 2.59375 -4.597656 2.53125 -4.453125 L 1.640625 -2.125 Z M 5.390625 0 L 4.796875 0 C 4.722656 0 4.664062 -0.015625 4.625 -0.046875 C 4.582031 -0.0859375 4.550781 -0.132812 4.53125 -0.1875 L 3.984375 -1.5625 L 1.421875 -1.5625 L 0.890625 -0.1875 C 0.867188 -0.132812 0.832031 -0.0859375 0.78125 -0.046875 C 0.738281 -0.015625 0.6875 0 0.625 0 L 0.03125 0 L 2.3125 -5.734375 L 3.09375 -5.734375 Z M 5.390625 0 "/></g></g></g><g fill="#004aad" fill-opacity="1"><g transform="translate(210.956822, 265.58334)"><g/></g></g><g fill="#004aad" fill-opacity="1"><g transform="translate(219.404866, 265.58334)"><g><path d="M 4.75 -1.1875 C 4.789062 -1.1875 4.832031 -1.164062 4.875 -1.125 L 5.171875 -0.796875 C 4.941406 -0.523438 4.65625 -0.3125 4.3125 -0.15625 C 3.976562 -0.0078125 3.578125 0.0625 3.109375 0.0625 C 2.691406 0.0625 2.316406 -0.00390625 1.984375 -0.140625 C 1.648438 -0.285156 1.363281 -0.488281 1.125 -0.75 C 0.882812 -1.007812 0.695312 -1.316406 0.5625 -1.671875 C 0.4375 -2.035156 0.375 -2.429688 0.375 -2.859375 C 0.375 -3.296875 0.441406 -3.691406 0.578125 -4.046875 C 0.710938 -4.410156 0.90625 -4.722656 1.15625 -4.984375 C 1.40625 -5.242188 1.703125 -5.441406 2.046875 -5.578125 C 2.390625 -5.722656 2.769531 -5.796875 3.1875 -5.796875 C 3.59375 -5.796875 3.953125 -5.726562 4.265625 -5.59375 C 4.578125 -5.46875 4.851562 -5.289062 5.09375 -5.0625 L 4.828125 -4.71875 C 4.816406 -4.6875 4.796875 -4.660156 4.765625 -4.640625 C 4.742188 -4.628906 4.710938 -4.625 4.671875 -4.625 C 4.617188 -4.625 4.554688 -4.648438 4.484375 -4.703125 C 4.421875 -4.753906 4.332031 -4.8125 4.21875 -4.875 C 4.101562 -4.9375 3.960938 -4.992188 3.796875 -5.046875 C 3.628906 -5.097656 3.425781 -5.125 3.1875 -5.125 C 2.882812 -5.125 2.609375 -5.070312 2.359375 -4.96875 C 2.117188 -4.863281 1.910156 -4.710938 1.734375 -4.515625 C 1.554688 -4.328125 1.414062 -4.09375 1.3125 -3.8125 C 1.21875 -3.53125 1.171875 -3.210938 1.171875 -2.859375 C 1.171875 -2.503906 1.222656 -2.1875 1.328125 -1.90625 C 1.429688 -1.625 1.570312 -1.382812 1.75 -1.1875 C 1.925781 -1 2.132812 -0.851562 2.375 -0.75 C 2.613281 -0.65625 2.875 -0.609375 3.15625 -0.609375 C 3.320312 -0.609375 3.472656 -0.613281 3.609375 -0.625 C 3.753906 -0.644531 3.882812 -0.675781 4 -0.71875 C 4.113281 -0.769531 4.21875 -0.828125 4.3125 -0.890625 C 4.414062 -0.953125 4.519531 -1.03125 4.625 -1.125 C 4.664062 -1.164062 4.707031 -1.1875 4.75 -1.1875 Z M 4.75 -1.1875 "/></g></g></g><g fill="#004aad" fill-opacity="1"><g transform="translate(231.14894, 265.58334)"><g><path d="M 1.515625 0 L 0.734375 0 L 0.734375 -5.734375 L 1.515625 -5.734375 Z M 1.515625 0 "/></g></g></g><g fill="#004aad" fill-opacity="1"><g transform="translate(239.78899, 265.58334)"><g><path d="M 4.609375 -5.078125 L 2.75 -5.078125 L 2.75 0 L 1.984375 0 L 1.984375 -5.078125 L 0.125 -5.078125 L 0.125 -5.734375 L 4.609375 -5.734375 Z M 4.609375 -5.078125 "/></g></g></g><g fill="#004aad" fill-opacity="1"><g transform="translate(250.913057, 265.58334)"><g><path d="M 2.890625 -2.28125 L 2.890625 0 L 2.109375 0 L 2.109375 -2.28125 L 0.015625 -5.734375 L 0.6875 -5.734375 C 0.757812 -5.734375 0.8125 -5.710938 0.84375 -5.671875 C 0.882812 -5.640625 0.921875 -5.597656 0.953125 -5.546875 L 2.265625 -3.328125 C 2.316406 -3.234375 2.359375 -3.144531 2.390625 -3.0625 C 2.429688 -2.976562 2.46875 -2.894531 2.5 -2.8125 C 2.53125 -2.894531 2.5625 -2.976562 2.59375 -3.0625 C 2.632812 -3.144531 2.679688 -3.234375 2.734375 -3.328125 L 4.03125 -5.546875 C 4.0625 -5.597656 4.097656 -5.640625 4.140625 -5.671875 C 4.179688 -5.710938 4.234375 -5.734375 4.296875 -5.734375 L 4.984375 -5.734375 Z M 2.890625 -2.28125 "/></g></g></g></svg>