<svg xmlns="http://www.w3.org/2000/svg" xmlns:xlink="http://www.w3.org/1999/xlink" width="500" zoomAndPan="magnify" viewBox="0 0 375 374.999991" height="500" preserveAspectRatio="xMidYMid meet" version="1.0"><defs><g/><clipPath id="7170359617"><path d="M 145.070312 129 L 165 129 L 165 161 L 145.070312 161 Z M 145.070312 129 " clip-rule="nonzero"/></clipPath><clipPath id="ec8ad3982f"><path d="M 208 156 L 229.820312 156 L 229.820312 190 L 208 190 Z M 208 156 " clip-rule="nonzero"/></clipPath><clipPath id="1db3c1b11d"><path d="M 178 127 L 229.820312 127 L 229.820312 173 L 178 173 Z M 178 127 " clip-rule="nonzero"/></clipPath><clipPath id="d3d1ba032d"><path d="M 145.070312 157 L 158 157 L 158 178 L 145.070312 178 Z M 145.070312 157 " clip-rule="nonzero"/></clipPath><clipPath id="32d45fc1a2"><path d="M 145.070312 161 L 188 161 L 188 197 L 145.070312 197 Z M 145.070312 161 " clip-rule="nonzero"/></clipPath><clipPath id="092b215bf4"><path d="M 155 113.5 L 183 113.5 L 183 158 L 155 158 Z M 155 113.5 " clip-rule="nonzero"/></clipPath></defs><g clip-path="url(#7170359617)"><path fill="#ffbc2e" d="M 162.488281 160.457031 C 162.75 160.632812 163.101562 160.601562 163.328125 160.382812 L 164.464844 159.277344 C 164.433594 159.234375 164.394531 159.195312 164.359375 159.148438 C 161.003906 154.453125 153.496094 142.710938 152.179688 130.339844 C 152.125 129.824219 151.550781 129.5625 151.121094 129.855469 C 147.476562 132.320312 145.074219 136.492188 145.074219 141.230469 L 145.074219 148.539062 C 145.074219 148.765625 145.1875 148.976562 145.375 149.101562 L 162.488281 160.457031 " fill-opacity="1" fill-rule="nonzero"/></g><g clip-path="url(#ec8ad3982f)"><path fill="#5db3ff" d="M 228.683594 156.890625 L 209.117188 175.824219 C 208.804688 176.125 208.851562 176.636719 209.210938 176.875 L 227.515625 189.046875 C 227.851562 189.273438 228.320312 189.15625 228.496094 188.792969 C 229.347656 187.003906 229.824219 185.003906 229.824219 182.890625 L 229.824219 157.378906 C 229.824219 156.78125 229.109375 156.476562 228.683594 156.890625 " fill-opacity="1" fill-rule="nonzero"/></g><g clip-path="url(#1db3c1b11d)"><path fill="#acde50" d="M 216.132812 127.507812 L 207.613281 127.507812 C 207.441406 127.507812 207.273438 127.578125 207.144531 127.699219 L 178.472656 155.449219 C 178.160156 155.75 178.207031 156.257812 178.566406 156.496094 L 202.105469 172.152344 C 202.371094 172.328125 202.71875 172.292969 202.949219 172.074219 L 216.132812 159.3125 C 216.441406 159.011719 216.394531 158.503906 216.035156 158.265625 L 204.359375 150.515625 C 204 150.277344 203.953125 149.765625 204.265625 149.46875 L 208.410156 145.453125 C 208.636719 145.234375 208.988281 145.203125 209.25 145.378906 L 221.425781 153.457031 C 221.6875 153.632812 222.039062 153.601562 222.265625 153.378906 L 229.617188 146.265625 C 229.75 146.136719 229.824219 145.960938 229.824219 145.777344 L 229.824219 141.230469 C 229.824219 133.652344 223.695312 127.507812 216.132812 127.507812 " fill-opacity="1" fill-rule="nonzero"/></g><path fill="#5db3ff" d="M 185.214844 139.199219 L 196.097656 128.671875 C 196.53125 128.25 196.234375 127.507812 195.628906 127.507812 L 186.65625 127.507812 C 186.296875 127.507812 186.007812 127.792969 185.992188 128.152344 C 185.835938 131.679688 185.128906 135.179688 184.109375 138.519531 C 183.90625 139.1875 184.714844 139.683594 185.214844 139.199219 " fill-opacity="1" fill-rule="nonzero"/><g clip-path="url(#d3d1ba032d)"><path fill="#acde50" d="M 157.195312 166.316406 C 157.503906 166.015625 157.457031 165.503906 157.097656 165.265625 L 146.121094 157.980469 C 145.671875 157.683594 145.074219 158.007812 145.074219 158.542969 L 145.074219 176.453125 C 145.074219 177.050781 145.789062 177.355469 146.214844 176.941406 L 157.195312 166.316406 " fill-opacity="1" fill-rule="nonzero"/></g><path fill="#ffbc2e" d="M 194.648438 175.585938 C 194.386719 175.410156 194.035156 175.441406 193.808594 175.660156 L 173.359375 195.449219 C 172.925781 195.871094 173.222656 196.613281 173.828125 196.613281 L 192.125 196.613281 C 192.570312 196.613281 192.996094 196.808594 193.285156 197.148438 L 204.089844 209.851562 C 205.007812 210.933594 206.769531 210.28125 206.769531 208.863281 L 206.769531 198.136719 C 206.769531 197.296875 207.453125 196.613281 208.292969 196.613281 L 216.132812 196.613281 C 218.328125 196.613281 220.394531 196.085938 222.230469 195.164062 C 222.703125 194.925781 222.757812 194.277344 222.316406 193.984375 L 194.648438 175.585938 " fill-opacity="1" fill-rule="nonzero"/><g clip-path="url(#32d45fc1a2)"><path fill="#5db3ff" d="M 187.546875 170.859375 L 173.179688 161.304688 C 172.914062 161.128906 172.566406 161.164062 172.335938 161.382812 L 146.058594 186.8125 C 145.867188 186.996094 145.796875 187.285156 145.886719 187.535156 C 147.785156 192.828125 152.832031 196.613281 158.765625 196.613281 L 161.84375 196.613281 C 162.015625 196.613281 162.183594 196.542969 162.308594 196.421875 L 187.640625 171.910156 C 187.953125 171.609375 187.90625 171.097656 187.546875 170.859375 " fill-opacity="1" fill-rule="nonzero"/></g><g clip-path="url(#092b215bf4)"><path fill="#fb4d48" d="M 169.003906 131.808594 C 166.195312 131.808594 163.914062 129.523438 163.914062 126.703125 C 163.914062 123.886719 166.195312 121.601562 169.003906 121.601562 C 171.816406 121.601562 174.097656 123.886719 174.097656 126.703125 C 174.097656 129.523438 171.816406 131.808594 169.003906 131.808594 Z M 155.925781 127.441406 C 156.246094 139.746094 164.246094 152.183594 167.574219 156.84375 C 168.277344 157.828125 169.726562 157.835938 170.429688 156.851562 C 173.824219 152.105469 182.097656 139.242188 182.097656 126.683594 C 182.097656 119.441406 176.238281 113.566406 169.007812 113.5625 C 161.367188 113.5625 155.734375 120.128906 155.925781 127.441406 " fill-opacity="1" fill-rule="nonzero"/></g><g fill="#004aad" fill-opacity="1"><g transform="translate(107.472639, 245.543422)"><g><path d="M 15.53125 0 L 1.6875 0 L 1.6875 -21.546875 L 6.75 -21.546875 L 6.75 -4.515625 L 15.53125 -4.515625 Z M 15.53125 0 "/></g></g></g><g fill="#004aad" fill-opacity="1"><g transform="translate(124.630337, 245.543422)"><g><path d="M 11.65625 0.484375 C 9.8125 0.484375 8.210938 0.179688 6.859375 -0.421875 C 5.503906 -1.023438 4.390625 -1.847656 3.515625 -2.890625 C 2.640625 -3.941406 1.984375 -5.144531 1.546875 -6.5 C 1.117188 -7.851562 0.90625 -9.28125 0.90625 -10.78125 C 0.90625 -12.289062 1.117188 -13.71875 1.546875 -15.0625 C 1.984375 -16.40625 2.640625 -17.597656 3.515625 -18.640625 C 4.390625 -19.691406 5.503906 -20.515625 6.859375 -21.109375 C 8.210938 -21.703125 9.8125 -22 11.65625 -22 C 13.488281 -22 15.078125 -21.703125 16.421875 -21.109375 C 17.765625 -20.515625 18.878906 -19.691406 19.765625 -18.640625 C 20.648438 -17.597656 21.304688 -16.40625 21.734375 -15.0625 C 22.171875 -13.71875 22.390625 -12.289062 22.390625 -10.78125 C 22.390625 -9.28125 22.171875 -7.851562 21.734375 -6.5 C 21.304688 -5.144531 20.648438 -3.941406 19.765625 -2.890625 C 18.878906 -1.847656 17.765625 -1.023438 16.421875 -0.421875 C 15.078125 0.179688 13.488281 0.484375 11.65625 0.484375 Z M 11.65625 -4.03125 C 13.351562 -4.03125 14.675781 -4.640625 15.625 -5.859375 C 16.570312 -7.085938 17.046875 -8.726562 17.046875 -10.78125 C 17.046875 -12.8125 16.570312 -14.4375 15.625 -15.65625 C 14.675781 -16.875 13.351562 -17.484375 11.65625 -17.484375 C 9.96875 -17.484375 8.640625 -16.875 7.671875 -15.65625 C 6.710938 -14.4375 6.234375 -12.8125 6.234375 -10.78125 C 6.234375 -8.726562 6.710938 -7.085938 7.671875 -5.859375 C 8.640625 -4.640625 9.96875 -4.03125 11.65625 -4.03125 Z M 11.65625 -4.03125 "/></g></g></g><g fill="#004aad" fill-opacity="1"><g transform="translate(149.350667, 245.543422)"><g><path d="M 11.65625 0.484375 C 9.8125 0.484375 8.210938 0.179688 6.859375 -0.421875 C 5.503906 -1.023438 4.390625 -1.847656 3.515625 -2.890625 C 2.640625 -3.941406 1.984375 -5.144531 1.546875 -6.5 C 1.117188 -7.851562 0.90625 -9.28125 0.90625 -10.78125 C 0.90625 -12.289062 1.117188 -13.71875 1.546875 -15.0625 C 1.984375 -16.40625 2.640625 -17.597656 3.515625 -18.640625 C 4.390625 -19.691406 5.503906 -20.515625 6.859375 -21.109375 C 8.210938 -21.703125 9.8125 -22 11.65625 -22 C 13.5625 -22 15.1875 -21.671875 16.53125 -21.015625 C 17.875 -20.367188 18.941406 -19.46875 19.734375 -18.3125 C 20.523438 -17.15625 21.015625 -15.804688 21.203125 -14.265625 L 15.671875 -14.265625 C 15.515625 -15.367188 15.054688 -16.179688 14.296875 -16.703125 C 13.535156 -17.222656 12.617188 -17.484375 11.546875 -17.484375 C 9.835938 -17.484375 8.523438 -16.875 7.609375 -15.65625 C 6.691406 -14.4375 6.234375 -12.8125 6.234375 -10.78125 C 6.234375 -8.726562 6.691406 -7.085938 7.609375 -5.859375 C 8.523438 -4.640625 9.835938 -4.03125 11.546875 -4.03125 C 12.617188 -4.03125 13.53125 -4.296875 14.28125 -4.828125 C 15.039062 -5.359375 15.503906 -6.1875 15.671875 -7.3125 L 21.203125 -7.3125 C 21.015625 -5.769531 20.523438 -4.410156 19.734375 -3.234375 C 18.941406 -2.054688 17.875 -1.140625 16.53125 -0.484375 C 15.1875 0.160156 13.5625 0.484375 11.65625 0.484375 Z M 11.65625 0.484375 "/></g></g></g><g fill="#004aad" fill-opacity="1"><g transform="translate(172.744718, 245.543422)"><g><path d="M 5.421875 0 L 0.0625 0 L 7.421875 -21.546875 L 12.90625 -21.546875 L 20.265625 0 L 14.90625 0 L 13.75 -3.875 L 6.578125 -3.875 Z M 10.171875 -15.921875 L 7.90625 -8.25 L 12.421875 -8.25 Z M 10.171875 -15.921875 "/></g></g></g><g fill="#004aad" fill-opacity="1"><g transform="translate(194.47386, 245.543422)"><g><path d="M 11.34375 0 L 6.296875 0 L 6.296875 -17.03125 L 0.21875 -17.03125 L 0.21875 -21.546875 L 17.421875 -21.546875 L 17.421875 -17.03125 L 11.34375 -17.03125 Z M 11.34375 0 "/></g></g></g><g fill="#004aad" fill-opacity="1"><g transform="translate(213.522217, 245.543422)"><g><path d="M 6.75 0 L 1.6875 0 L 1.6875 -21.546875 L 6.75 -21.546875 Z M 6.75 0 "/></g></g></g><g fill="#004aad" fill-opacity="1"><g transform="translate(223.399464, 245.543422)"><g><path d="M 11.65625 0.484375 C 9.8125 0.484375 8.210938 0.179688 6.859375 -0.421875 C 5.503906 -1.023438 4.390625 -1.847656 3.515625 -2.890625 C 2.640625 -3.941406 1.984375 -5.144531 1.546875 -6.5 C 1.117188 -7.851562 0.90625 -9.28125 0.90625 -10.78125 C 0.90625 -12.289062 1.117188 -13.71875 1.546875 -15.0625 C 1.984375 -16.40625 2.640625 -17.597656 3.515625 -18.640625 C 4.390625 -19.691406 5.503906 -20.515625 6.859375 -21.109375 C 8.210938 -21.703125 9.8125 -22 11.65625 -22 C 13.488281 -22 15.078125 -21.703125 16.421875 -21.109375 C 17.765625 -20.515625 18.878906 -19.691406 19.765625 -18.640625 C 20.648438 -17.597656 21.304688 -16.40625 21.734375 -15.0625 C 22.171875 -13.71875 22.390625 -12.289062 22.390625 -10.78125 C 22.390625 -9.28125 22.171875 -7.851562 21.734375 -6.5 C 21.304688 -5.144531 20.648438 -3.941406 19.765625 -2.890625 C 18.878906 -1.847656 17.765625 -1.023438 16.421875 -0.421875 C 15.078125 0.179688 13.488281 0.484375 11.65625 0.484375 Z M 11.65625 -4.03125 C 13.351562 -4.03125 14.675781 -4.640625 15.625 -5.859375 C 16.570312 -7.085938 17.046875 -8.726562 17.046875 -10.78125 C 17.046875 -12.8125 16.570312 -14.4375 15.625 -15.65625 C 14.675781 -16.875 13.351562 -17.484375 11.65625 -17.484375 C 9.96875 -17.484375 8.640625 -16.875 7.671875 -15.65625 C 6.710938 -14.4375 6.234375 -12.8125 6.234375 -10.78125 C 6.234375 -8.726562 6.710938 -7.085938 7.671875 -5.859375 C 8.640625 -4.640625 9.96875 -4.03125 11.65625 -4.03125 Z M 11.65625 -4.03125 "/></g></g></g><g fill="#004aad" fill-opacity="1"><g transform="translate(248.119787, 245.543422)"><g><path d="M 6.75 0 L 1.6875 0 L 1.6875 -21.546875 L 6.828125 -21.546875 L 15.109375 -8.46875 L 15.109375 -21.546875 L 20.15625 -21.546875 L 20.15625 0 L 15.015625 0 L 6.75 -13.15625 Z M 6.75 0 "/></g></g></g><g fill="#004aad" fill-opacity="1"><g transform="translate(135.104574, 265.901942)"><g><path d="M 2.890625 -2.28125 L 2.890625 0 L 2.109375 0 L 2.109375 -2.28125 L 0.015625 -5.734375 L 0.6875 -5.734375 C 0.757812 -5.734375 0.8125 -5.710938 0.84375 -5.671875 C 0.882812 -5.640625 0.921875 -5.597656 0.953125 -5.546875 L 2.265625 -3.328125 C 2.316406 -3.234375 2.359375 -3.144531 2.390625 -3.0625 C 2.429688 -2.976562 2.46875 -2.894531 2.5 -2.8125 C 2.53125 -2.894531 2.5625 -2.976562 2.59375 -3.0625 C 2.632812 -3.144531 2.679688 -3.234375 2.734375 -3.328125 L 4.03125 -5.546875 C 4.0625 -5.597656 4.097656 -5.640625 4.140625 -5.671875 C 4.179688 -5.710938 4.234375 -5.734375 4.296875 -5.734375 L 4.984375 -5.734375 Z M 2.890625 -2.28125 "/></g></g></g><g fill="#004aad" fill-opacity="1"><g transform="translate(146.496643, 265.901942)"><g><path d="M 6.03125 -2.859375 C 6.03125 -2.429688 5.960938 -2.035156 5.828125 -1.671875 C 5.691406 -1.316406 5.5 -1.007812 5.25 -0.75 C 5 -0.5 4.695312 -0.300781 4.34375 -0.15625 C 4 -0.0078125 3.617188 0.0625 3.203125 0.0625 C 2.773438 0.0625 2.390625 -0.0078125 2.046875 -0.15625 C 1.703125 -0.300781 1.40625 -0.5 1.15625 -0.75 C 0.90625 -1.007812 0.710938 -1.316406 0.578125 -1.671875 C 0.441406 -2.035156 0.375 -2.429688 0.375 -2.859375 C 0.375 -3.296875 0.441406 -3.691406 0.578125 -4.046875 C 0.710938 -4.398438 0.90625 -4.707031 1.15625 -4.96875 C 1.40625 -5.226562 1.703125 -5.429688 2.046875 -5.578125 C 2.390625 -5.722656 2.773438 -5.796875 3.203125 -5.796875 C 3.617188 -5.796875 4 -5.722656 4.34375 -5.578125 C 4.695312 -5.429688 5 -5.226562 5.25 -4.96875 C 5.5 -4.707031 5.691406 -4.398438 5.828125 -4.046875 C 5.960938 -3.691406 6.03125 -3.296875 6.03125 -2.859375 Z M 5.234375 -2.859375 C 5.234375 -3.210938 5.179688 -3.53125 5.078125 -3.8125 C 4.984375 -4.09375 4.847656 -4.328125 4.671875 -4.515625 C 4.503906 -4.710938 4.289062 -4.863281 4.03125 -4.96875 C 3.78125 -5.070312 3.503906 -5.125 3.203125 -5.125 C 2.890625 -5.125 2.609375 -5.070312 2.359375 -4.96875 C 2.109375 -4.863281 1.894531 -4.710938 1.71875 -4.515625 C 1.539062 -4.328125 1.40625 -4.09375 1.3125 -3.8125 C 1.21875 -3.53125 1.171875 -3.210938 1.171875 -2.859375 C 1.171875 -2.515625 1.21875 -2.203125 1.3125 -1.921875 C 1.40625 -1.640625 1.539062 -1.398438 1.71875 -1.203125 C 1.894531 -1.015625 2.109375 -0.867188 2.359375 -0.765625 C 2.609375 -0.660156 2.890625 -0.609375 3.203125 -0.609375 C 3.503906 -0.609375 3.78125 -0.660156 4.03125 -0.765625 C 4.289062 -0.867188 4.503906 -1.015625 4.671875 -1.203125 C 4.847656 -1.398438 4.984375 -1.640625 5.078125 -1.921875 C 5.179688 -2.203125 5.234375 -2.515625 5.234375 -2.859375 Z M 5.234375 -2.859375 "/></g></g></g><g fill="#004aad" fill-opacity="1"><g transform="translate(159.300725, 265.901942)"><g><path d="M 2.9375 -0.609375 C 3.175781 -0.609375 3.390625 -0.648438 3.578125 -0.734375 C 3.765625 -0.816406 3.921875 -0.925781 4.046875 -1.0625 C 4.179688 -1.207031 4.28125 -1.378906 4.34375 -1.578125 C 4.414062 -1.785156 4.453125 -2.007812 4.453125 -2.25 L 4.453125 -5.734375 L 5.21875 -5.734375 L 5.21875 -2.25 C 5.21875 -1.914062 5.164062 -1.609375 5.0625 -1.328125 C 4.957031 -1.046875 4.804688 -0.800781 4.609375 -0.59375 C 4.410156 -0.382812 4.171875 -0.222656 3.890625 -0.109375 C 3.609375 0.00390625 3.289062 0.0625 2.9375 0.0625 C 2.59375 0.0625 2.273438 0.00390625 1.984375 -0.109375 C 1.703125 -0.222656 1.460938 -0.382812 1.265625 -0.59375 C 1.066406 -0.800781 0.914062 -1.046875 0.8125 -1.328125 C 0.707031 -1.609375 0.65625 -1.914062 0.65625 -2.25 L 0.65625 -5.734375 L 1.4375 -5.734375 L 1.4375 -2.25 C 1.4375 -2.007812 1.46875 -1.789062 1.53125 -1.59375 C 1.601562 -1.394531 1.703125 -1.222656 1.828125 -1.078125 C 1.960938 -0.929688 2.125 -0.816406 2.3125 -0.734375 C 2.5 -0.648438 2.707031 -0.609375 2.9375 -0.609375 Z M 2.9375 -0.609375 "/></g></g></g><g fill="#004aad" fill-opacity="1"><g transform="translate(171.584806, 265.901942)"><g><path d="M 2.3125 -2.953125 C 2.539062 -2.953125 2.738281 -2.976562 2.90625 -3.03125 C 3.082031 -3.09375 3.226562 -3.171875 3.34375 -3.265625 C 3.457031 -3.367188 3.546875 -3.488281 3.609375 -3.625 C 3.671875 -3.769531 3.703125 -3.925781 3.703125 -4.09375 C 3.703125 -4.425781 3.585938 -4.679688 3.359375 -4.859375 C 3.140625 -5.035156 2.804688 -5.125 2.359375 -5.125 L 1.5 -5.125 L 1.5 -2.953125 Z M 4.96875 0 L 4.28125 0 C 4.132812 0 4.03125 -0.0507812 3.96875 -0.15625 L 2.484375 -2.21875 C 2.429688 -2.28125 2.378906 -2.320312 2.328125 -2.34375 C 2.273438 -2.375 2.195312 -2.390625 2.09375 -2.390625 L 1.5 -2.390625 L 1.5 0 L 0.734375 0 L 0.734375 -5.734375 L 2.359375 -5.734375 C 2.710938 -5.734375 3.019531 -5.695312 3.28125 -5.625 C 3.550781 -5.550781 3.769531 -5.441406 3.9375 -5.296875 C 4.113281 -5.160156 4.242188 -4.992188 4.328125 -4.796875 C 4.410156 -4.609375 4.453125 -4.390625 4.453125 -4.140625 C 4.453125 -3.941406 4.421875 -3.753906 4.359375 -3.578125 C 4.296875 -3.398438 4.203125 -3.238281 4.078125 -3.09375 C 3.953125 -2.957031 3.800781 -2.835938 3.625 -2.734375 C 3.457031 -2.640625 3.265625 -2.566406 3.046875 -2.515625 C 3.140625 -2.460938 3.222656 -2.382812 3.296875 -2.28125 Z M 4.96875 0 "/></g></g></g><g fill="#004aad" fill-opacity="1"><g transform="translate(182.996874, 265.901942)"><g/></g></g><g fill="#004aad" fill-opacity="1"><g transform="translate(191.444912, 265.901942)"><g><path d="M 2.421875 -2.765625 C 2.640625 -2.765625 2.832031 -2.789062 3 -2.84375 C 3.175781 -2.90625 3.320312 -2.988281 3.4375 -3.09375 C 3.550781 -3.195312 3.632812 -3.320312 3.6875 -3.46875 C 3.75 -3.613281 3.78125 -3.773438 3.78125 -3.953125 C 3.78125 -4.316406 3.664062 -4.601562 3.4375 -4.8125 C 3.21875 -5.019531 2.878906 -5.125 2.421875 -5.125 L 1.5 -5.125 L 1.5 -2.765625 Z M 2.421875 -5.734375 C 2.785156 -5.734375 3.097656 -5.691406 3.359375 -5.609375 C 3.628906 -5.523438 3.851562 -5.40625 4.03125 -5.25 C 4.207031 -5.09375 4.335938 -4.90625 4.421875 -4.6875 C 4.515625 -4.46875 4.5625 -4.222656 4.5625 -3.953125 C 4.5625 -3.691406 4.515625 -3.445312 4.421875 -3.21875 C 4.328125 -3 4.1875 -2.804688 4 -2.640625 C 3.820312 -2.484375 3.597656 -2.359375 3.328125 -2.265625 C 3.066406 -2.179688 2.765625 -2.140625 2.421875 -2.140625 L 1.5 -2.140625 L 1.5 0 L 0.734375 0 L 0.734375 -5.734375 Z M 2.421875 -5.734375 "/></g></g></g><g fill="#004aad" fill-opacity="1"><g transform="translate(202.648981, 265.901942)"><g><path d="M 1.515625 0 L 0.734375 0 L 0.734375 -5.734375 L 1.515625 -5.734375 Z M 1.515625 0 "/></g></g></g><g fill="#004aad" fill-opacity="1"><g transform="translate(211.289027, 265.901942)"><g><path d="M 4.75 -1.1875 C 4.789062 -1.1875 4.832031 -1.164062 4.875 -1.125 L 5.171875 -0.796875 C 4.941406 -0.523438 4.65625 -0.3125 4.3125 -0.15625 C 3.976562 -0.0078125 3.578125 0.0625 3.109375 0.0625 C 2.691406 0.0625 2.316406 -0.00390625 1.984375 -0.140625 C 1.648438 -0.285156 1.363281 -0.488281 1.125 -0.75 C 0.882812 -1.007812 0.695312 -1.316406 0.5625 -1.671875 C 0.4375 -2.035156 0.375 -2.429688 0.375 -2.859375 C 0.375 -3.296875 0.441406 -3.691406 0.578125 -4.046875 C 0.710938 -4.410156 0.90625 -4.722656 1.15625 -4.984375 C 1.40625 -5.242188 1.703125 -5.441406 2.046875 -5.578125 C 2.390625 -5.722656 2.769531 -5.796875 3.1875 -5.796875 C 3.59375 -5.796875 3.953125 -5.726562 4.265625 -5.59375 C 4.578125 -5.46875 4.851562 -5.289062 5.09375 -5.0625 L 4.828125 -4.71875 C 4.816406 -4.6875 4.796875 -4.660156 4.765625 -4.640625 C 4.742188 -4.628906 4.710938 -4.625 4.671875 -4.625 C 4.617188 -4.625 4.554688 -4.648438 4.484375 -4.703125 C 4.421875 -4.753906 4.332031 -4.8125 4.21875 -4.875 C 4.101562 -4.9375 3.960938 -4.992188 3.796875 -5.046875 C 3.628906 -5.097656 3.425781 -5.125 3.1875 -5.125 C 2.882812 -5.125 2.609375 -5.070312 2.359375 -4.96875 C 2.117188 -4.863281 1.910156 -4.710938 1.734375 -4.515625 C 1.554688 -4.328125 1.414062 -4.09375 1.3125 -3.8125 C 1.21875 -3.53125 1.171875 -3.210938 1.171875 -2.859375 C 1.171875 -2.503906 1.222656 -2.1875 1.328125 -1.90625 C 1.429688 -1.625 1.570312 -1.382812 1.75 -1.1875 C 1.925781 -1 2.132812 -0.851562 2.375 -0.75 C 2.613281 -0.65625 2.875 -0.609375 3.15625 -0.609375 C 3.320312 -0.609375 3.472656 -0.613281 3.609375 -0.625 C 3.753906 -0.644531 3.882812 -0.675781 4 -0.71875 C 4.113281 -0.769531 4.21875 -0.828125 4.3125 -0.890625 C 4.414062 -0.953125 4.519531 -1.03125 4.625 -1.125 C 4.664062 -1.164062 4.707031 -1.1875 4.75 -1.1875 Z M 4.75 -1.1875 "/></g></g></g><g fill="#004aad" fill-opacity="1"><g transform="translate(223.033101, 265.901942)"><g><path d="M 1.5 -3.21875 L 1.796875 -3.21875 C 1.898438 -3.21875 1.976562 -3.226562 2.03125 -3.25 C 2.09375 -3.28125 2.148438 -3.328125 2.203125 -3.390625 L 4.109375 -5.546875 C 4.171875 -5.617188 4.226562 -5.664062 4.28125 -5.6875 C 4.34375 -5.71875 4.414062 -5.734375 4.5 -5.734375 L 5.15625 -5.734375 L 2.96875 -3.265625 C 2.914062 -3.203125 2.863281 -3.148438 2.8125 -3.109375 C 2.769531 -3.066406 2.71875 -3.03125 2.65625 -3 C 2.726562 -2.976562 2.789062 -2.941406 2.84375 -2.890625 C 2.90625 -2.847656 2.96875 -2.789062 3.03125 -2.71875 L 5.3125 0 L 4.640625 0 C 4.585938 0 4.539062 0 4.5 0 C 4.46875 -0.0078125 4.4375 -0.0195312 4.40625 -0.03125 C 4.382812 -0.0507812 4.363281 -0.0703125 4.34375 -0.09375 C 4.320312 -0.113281 4.300781 -0.132812 4.28125 -0.15625 L 2.3125 -2.4375 C 2.257812 -2.507812 2.203125 -2.554688 2.140625 -2.578125 C 2.078125 -2.609375 1.984375 -2.625 1.859375 -2.625 L 1.5 -2.625 L 1.5 0 L 0.734375 0 L 0.734375 -5.734375 L 1.5 -5.734375 Z M 1.5 -3.21875 "/></g></g></g><g fill="#004aad" fill-opacity="1"><g transform="translate(234.733179, 265.901942)"><g><path d="M 1.421875 -5.734375 L 1.421875 -3.4375 C 1.421875 -3.320312 1.414062 -3.207031 1.40625 -3.09375 C 1.40625 -2.976562 1.398438 -2.863281 1.390625 -2.75 C 1.378906 -2.632812 1.367188 -2.515625 1.359375 -2.390625 C 1.347656 -2.265625 1.332031 -2.132812 1.3125 -2 L 0.84375 -2 C 0.820312 -2.132812 0.804688 -2.265625 0.796875 -2.390625 C 0.785156 -2.515625 0.773438 -2.632812 0.765625 -2.75 C 0.753906 -2.863281 0.742188 -2.976562 0.734375 -3.09375 C 0.734375 -3.207031 0.734375 -3.320312 0.734375 -3.4375 L 0.734375 -5.734375 Z M 0.5625 -0.4375 C 0.5625 -0.507812 0.570312 -0.578125 0.59375 -0.640625 C 0.625 -0.703125 0.660156 -0.753906 0.703125 -0.796875 C 0.753906 -0.835938 0.804688 -0.867188 0.859375 -0.890625 C 0.921875 -0.921875 0.988281 -0.9375 1.0625 -0.9375 C 1.132812 -0.9375 1.203125 -0.921875 1.265625 -0.890625 C 1.328125 -0.867188 1.378906 -0.835938 1.421875 -0.796875 C 1.460938 -0.753906 1.492188 -0.703125 1.515625 -0.640625 C 1.546875 -0.578125 1.5625 -0.507812 1.5625 -0.4375 C 1.5625 -0.363281 1.546875 -0.296875 1.515625 -0.234375 C 1.492188 -0.179688 1.460938 -0.128906 1.421875 -0.078125 C 1.378906 -0.0351562 1.328125 -0.00390625 1.265625 0.015625 C 1.203125 0.046875 1.132812 0.0625 1.0625 0.0625 C 0.988281 0.0625 0.921875 0.046875 0.859375 0.015625 C 0.804688 -0.00390625 0.753906 -0.0351562 0.703125 -0.078125 C 0.660156 -0.128906 0.625 -0.179688 0.59375 -0.234375 C 0.570312 -0.296875 0.5625 -0.363281 0.5625 -0.4375 Z M 0.5625 -0.4375 "/></g></g></g></svg>