<svg xmlns="http://www.w3.org/2000/svg" xmlns:xlink="http://www.w3.org/1999/xlink" width="310" zoomAndPan="magnify" viewBox="0 0 232.5 157.5" height="210" preserveAspectRatio="xMidYMid meet" version="1.0"><defs><g/><clipPath id="a51bc00c9c"><path d="M 73.355469 16 L 93 16 L 93 47 L 73.355469 47 Z M 73.355469 16 " clip-rule="nonzero"/></clipPath><clipPath id="a7f479acdf"><path d="M 137 43 L 157.835938 43 L 157.835938 76 L 137 76 Z M 137 43 " clip-rule="nonzero"/></clipPath><clipPath id="4472a2e33d"><path d="M 106 13 L 157.835938 13 L 157.835938 59 L 106 59 Z M 106 13 " clip-rule="nonzero"/></clipPath><clipPath id="b916b46a60"><path d="M 73.355469 44 L 86 44 L 86 64 L 73.355469 64 Z M 73.355469 44 " clip-rule="nonzero"/></clipPath></defs><g clip-path="url(#a51bc00c9c)"><path fill="#004aad" d="M 90.742188 46.757812 C 91.003906 46.933594 91.351562 46.902344 91.578125 46.683594 L 92.714844 45.585938 C 92.683594 45.542969 92.644531 45.5 92.609375 45.457031 C 89.261719 40.777344 81.765625 29.089844 80.453125 16.769531 C 80.398438 16.253906 79.828125 15.996094 79.398438 16.285156 C 75.757812 18.738281 73.359375 22.894531 73.359375 27.613281 L 73.359375 34.890625 C 73.359375 35.117188 73.472656 35.328125 73.660156 35.453125 L 90.742188 46.757812 " fill-opacity="1" fill-rule="nonzero"/></g><g clip-path="url(#a7f479acdf)"><path fill="#5db3ff" d="M 156.808594 43.207031 L 137.277344 62.0625 C 136.96875 62.359375 137.015625 62.867188 137.375 63.105469 L 155.644531 75.226562 C 155.980469 75.449219 156.445312 75.335938 156.621094 74.972656 C 157.472656 73.191406 157.949219 71.199219 157.949219 69.09375 L 157.949219 43.691406 C 157.949219 43.097656 157.234375 42.796875 156.808594 43.207031 " fill-opacity="1" fill-rule="nonzero"/></g><g clip-path="url(#4472a2e33d)"><path fill="#ffde59" d="M 144.285156 13.949219 L 135.78125 13.949219 C 135.605469 13.949219 135.4375 14.019531 135.3125 14.140625 L 106.695312 41.769531 C 106.386719 42.070312 106.429688 42.578125 106.789062 42.816406 L 130.285156 58.402344 C 130.546875 58.578125 130.894531 58.546875 131.121094 58.328125 L 144.28125 45.621094 C 144.589844 45.320312 144.542969 44.8125 144.1875 44.574219 L 132.53125 36.859375 C 132.171875 36.621094 132.125 36.113281 132.4375 35.816406 L 136.574219 31.820312 C 136.800781 31.601562 137.152344 31.570312 137.414062 31.742188 L 149.566406 39.789062 C 149.828125 39.960938 150.175781 39.929688 150.402344 39.710938 L 157.742188 32.625 C 157.875 32.5 157.949219 32.324219 157.949219 32.140625 L 157.949219 27.613281 C 157.949219 20.066406 151.828125 13.949219 144.285156 13.949219 " fill-opacity="1" fill-rule="nonzero"/></g><path fill="#5db3ff" d="M 113.425781 25.589844 L 124.285156 15.105469 C 124.71875 14.6875 124.421875 13.949219 123.816406 13.949219 L 114.863281 13.949219 C 114.503906 13.949219 114.21875 14.230469 114.203125 14.589844 C 114.042969 18.101562 113.335938 21.589844 112.320312 24.910156 C 112.117188 25.578125 112.925781 26.074219 113.425781 25.589844 " fill-opacity="1" fill-rule="nonzero"/><g clip-path="url(#b916b46a60)"><path fill="#ffde59" d="M 85.457031 52.589844 C 85.769531 52.292969 85.722656 51.785156 85.363281 51.546875 L 74.40625 44.292969 C 73.957031 43.996094 73.359375 44.316406 73.359375 44.855469 L 73.359375 62.6875 C 73.359375 63.28125 74.074219 63.582031 74.5 63.171875 L 85.457031 52.589844 " fill-opacity="1" fill-rule="nonzero"/></g><path fill="#004aad" d="M 122.839844 61.820312 C 122.578125 61.648438 122.230469 61.679688 122.003906 61.898438 L 101.59375 81.601562 C 101.15625 82.023438 101.453125 82.757812 102.058594 82.757812 L 120.320312 82.757812 C 120.765625 82.757812 121.191406 82.953125 121.476562 83.292969 L 132.261719 95.945312 C 133.179688 97.019531 134.9375 96.371094 134.9375 94.957031 L 134.9375 84.28125 C 134.9375 83.441406 135.617188 82.757812 136.457031 82.757812 L 144.285156 82.757812 C 146.472656 82.757812 148.535156 82.234375 150.367188 81.316406 C 150.839844 81.082031 150.894531 80.433594 150.457031 80.140625 L 122.839844 61.820312 " fill-opacity="1" fill-rule="nonzero"/><path fill="#5db3ff" d="M 115.75 57.117188 L 101.410156 47.605469 C 101.148438 47.429688 100.800781 47.460938 100.570312 47.679688 L 74.34375 73 C 74.152344 73.1875 74.082031 73.472656 74.171875 73.722656 C 76.066406 78.992188 81.105469 82.757812 87.027344 82.757812 L 90.097656 82.757812 C 90.269531 82.757812 90.4375 82.691406 90.5625 82.570312 L 115.847656 58.160156 C 116.15625 57.863281 116.109375 57.355469 115.75 57.117188 " fill-opacity="1" fill-rule="nonzero"/><path fill="#ffde59" d="M 97.246094 18.230469 C 94.441406 18.230469 92.164062 15.953125 92.164062 13.148438 C 92.164062 10.34375 94.441406 8.066406 97.246094 8.066406 C 100.050781 8.066406 102.328125 10.34375 102.328125 13.148438 C 102.328125 15.953125 100.050781 18.230469 97.246094 18.230469 Z M 84.191406 13.882812 C 84.511719 26.136719 92.496094 38.519531 95.816406 43.160156 C 96.519531 44.140625 97.96875 44.148438 98.667969 43.167969 C 102.054688 38.441406 110.3125 25.632812 110.3125 13.128906 C 110.3125 5.914062 104.464844 0.0664062 97.25 0.0664062 C 89.621094 0.0625 84 6.601562 84.191406 13.882812 " fill-opacity="1" fill-rule="nonzero"/><g fill="#ffde59" fill-opacity="1"><g transform="translate(37.804981, 131.625887)"><g><path d="M 15.0625 0 L 1.90625 0 L 1.90625 -21.46875 L 5.96875 -21.46875 L 5.96875 -3.625 L 15.0625 -3.625 Z M 15.0625 0 "/></g></g></g><g fill="#ffde59" fill-opacity="1"><g transform="translate(54.570824, 131.625887)"><g><path d="M 11.515625 0.390625 C 9.742188 0.390625 8.203125 0.09375 6.890625 -0.5 C 5.578125 -1.101562 4.492188 -1.921875 3.640625 -2.953125 C 2.785156 -3.984375 2.144531 -5.171875 1.71875 -6.515625 C 1.300781 -7.859375 1.09375 -9.269531 1.09375 -10.75 C 1.09375 -12.226562 1.300781 -13.640625 1.71875 -14.984375 C 2.144531 -16.328125 2.785156 -17.515625 3.640625 -18.546875 C 4.492188 -19.578125 5.578125 -20.382812 6.890625 -20.96875 C 8.203125 -21.5625 9.742188 -21.859375 11.515625 -21.859375 C 13.296875 -21.859375 14.84375 -21.5625 16.15625 -20.96875 C 17.46875 -20.382812 18.550781 -19.578125 19.40625 -18.546875 C 20.257812 -17.515625 20.894531 -16.328125 21.3125 -14.984375 C 21.738281 -13.640625 21.953125 -12.226562 21.953125 -10.75 C 21.953125 -9.269531 21.738281 -7.859375 21.3125 -6.515625 C 20.894531 -5.171875 20.257812 -3.984375 19.40625 -2.953125 C 18.550781 -1.921875 17.46875 -1.101562 16.15625 -0.5 C 14.84375 0.09375 13.296875 0.390625 11.515625 0.390625 Z M 11.515625 -3.234375 C 12.835938 -3.234375 13.957031 -3.546875 14.875 -4.171875 C 15.800781 -4.804688 16.507812 -5.691406 17 -6.828125 C 17.488281 -7.960938 17.734375 -9.269531 17.734375 -10.75 C 17.734375 -12.226562 17.488281 -13.523438 17 -14.640625 C 16.507812 -15.765625 15.800781 -16.640625 14.875 -17.265625 C 13.957031 -17.890625 12.835938 -18.203125 11.515625 -18.203125 C 10.210938 -18.203125 9.097656 -17.890625 8.171875 -17.265625 C 7.242188 -16.640625 6.535156 -15.765625 6.046875 -14.640625 C 5.554688 -13.523438 5.3125 -12.226562 5.3125 -10.75 C 5.3125 -9.269531 5.554688 -7.960938 6.046875 -6.828125 C 6.535156 -5.691406 7.242188 -4.804688 8.171875 -4.171875 C 9.097656 -3.546875 10.210938 -3.234375 11.515625 -3.234375 Z M 11.515625 -3.234375 "/></g></g></g><g fill="#ffde59" fill-opacity="1"><g transform="translate(79.044146, 131.625887)"><g><path d="M 11.515625 0.390625 C 9.734375 0.390625 8.1875 0.09375 6.875 -0.5 C 5.570312 -1.101562 4.492188 -1.921875 3.640625 -2.953125 C 2.785156 -3.984375 2.144531 -5.171875 1.71875 -6.515625 C 1.300781 -7.859375 1.09375 -9.269531 1.09375 -10.75 C 1.09375 -12.226562 1.300781 -13.640625 1.71875 -14.984375 C 2.144531 -16.328125 2.785156 -17.515625 3.640625 -18.546875 C 4.492188 -19.578125 5.570312 -20.382812 6.875 -20.96875 C 8.1875 -21.5625 9.734375 -21.859375 11.515625 -21.859375 C 13.273438 -21.859375 14.800781 -21.554688 16.09375 -20.953125 C 17.382812 -20.359375 18.414062 -19.523438 19.1875 -18.453125 C 19.957031 -17.390625 20.4375 -16.15625 20.625 -14.75 L 16.203125 -14.75 C 16.015625 -15.894531 15.484375 -16.757812 14.609375 -17.34375 C 13.742188 -17.9375 12.671875 -18.234375 11.390625 -18.234375 C 10.078125 -18.234375 8.96875 -17.914062 8.0625 -17.28125 C 7.164062 -16.65625 6.484375 -15.78125 6.015625 -14.65625 C 5.546875 -13.53125 5.3125 -12.226562 5.3125 -10.75 C 5.3125 -9.269531 5.546875 -7.960938 6.015625 -6.828125 C 6.484375 -5.691406 7.164062 -4.804688 8.0625 -4.171875 C 8.96875 -3.546875 10.078125 -3.234375 11.390625 -3.234375 C 12.671875 -3.234375 13.742188 -3.539062 14.609375 -4.15625 C 15.472656 -4.78125 16.003906 -5.722656 16.203125 -6.984375 L 20.625 -6.984375 C 20.4375 -5.492188 19.957031 -4.195312 19.1875 -3.09375 C 18.414062 -1.988281 17.382812 -1.128906 16.09375 -0.515625 C 14.800781 0.0859375 13.273438 0.390625 11.515625 0.390625 Z M 11.515625 0.390625 "/></g></g></g><g fill="#ffde59" fill-opacity="1"><g transform="translate(102.026606, 131.625887)"><g><path d="M 4.453125 0 L 0.203125 0 L 7.765625 -21.46875 L 12.21875 -21.46875 L 19.78125 0 L 15.53125 0 L 14.0625 -4.421875 L 5.875 -4.421875 Z M 9.984375 -17.046875 L 7.03125 -7.96875 L 12.9375 -7.96875 Z M 9.984375 -17.046875 "/></g></g></g><g fill="#ffde59" fill-opacity="1"><g transform="translate(123.40569, 131.625887)"><g><path d="M 10.890625 0 L 6.84375 0 L 6.84375 -17.84375 L 0.28125 -17.84375 L 0.28125 -21.46875 L 17.421875 -21.46875 L 17.421875 -17.84375 L 10.890625 -17.84375 Z M 10.890625 0 "/></g></g></g><g fill="#ffde59" fill-opacity="1"><g transform="translate(142.534417, 131.625887)"><g><path d="M 5.96875 0 L 1.90625 0 L 1.90625 -21.46875 L 5.96875 -21.46875 Z M 5.96875 0 "/></g></g></g><g fill="#ffde59" fill-opacity="1"><g transform="translate(151.817816, 131.625887)"><g><path d="M 11.515625 0.390625 C 9.742188 0.390625 8.203125 0.09375 6.890625 -0.5 C 5.578125 -1.101562 4.492188 -1.921875 3.640625 -2.953125 C 2.785156 -3.984375 2.144531 -5.171875 1.71875 -6.515625 C 1.300781 -7.859375 1.09375 -9.269531 1.09375 -10.75 C 1.09375 -12.226562 1.300781 -13.640625 1.71875 -14.984375 C 2.144531 -16.328125 2.785156 -17.515625 3.640625 -18.546875 C 4.492188 -19.578125 5.578125 -20.382812 6.890625 -20.96875 C 8.203125 -21.5625 9.742188 -21.859375 11.515625 -21.859375 C 13.296875 -21.859375 14.84375 -21.5625 16.15625 -20.96875 C 17.46875 -20.382812 18.550781 -19.578125 19.40625 -18.546875 C 20.257812 -17.515625 20.894531 -16.328125 21.3125 -14.984375 C 21.738281 -13.640625 21.953125 -12.226562 21.953125 -10.75 C 21.953125 -9.269531 21.738281 -7.859375 21.3125 -6.515625 C 20.894531 -5.171875 20.257812 -3.984375 19.40625 -2.953125 C 18.550781 -1.921875 17.46875 -1.101562 16.15625 -0.5 C 14.84375 0.09375 13.296875 0.390625 11.515625 0.390625 Z M 11.515625 -3.234375 C 12.835938 -3.234375 13.957031 -3.546875 14.875 -4.171875 C 15.800781 -4.804688 16.507812 -5.691406 17 -6.828125 C 17.488281 -7.960938 17.734375 -9.269531 17.734375 -10.75 C 17.734375 -12.226562 17.488281 -13.523438 17 -14.640625 C 16.507812 -15.765625 15.800781 -16.640625 14.875 -17.265625 C 13.957031 -17.890625 12.835938 -18.203125 11.515625 -18.203125 C 10.210938 -18.203125 9.097656 -17.890625 8.171875 -17.265625 C 7.242188 -16.640625 6.535156 -15.765625 6.046875 -14.640625 C 5.554688 -13.523438 5.3125 -12.226562 5.3125 -10.75 C 5.3125 -9.269531 5.554688 -7.960938 6.046875 -6.828125 C 6.535156 -5.691406 7.242188 -4.804688 8.171875 -4.171875 C 9.097656 -3.546875 10.210938 -3.234375 11.515625 -3.234375 Z M 11.515625 -3.234375 "/></g></g></g><g fill="#ffde59" fill-opacity="1"><g transform="translate(176.291143, 131.625887)"><g><path d="M 5.96875 0 L 1.90625 0 L 1.90625 -21.46875 L 6.46875 -21.46875 L 15.28125 -6.109375 L 15.28125 -21.46875 L 19.328125 -21.46875 L 19.328125 0 L 14.75 0 L 5.96875 -15.390625 Z M 5.96875 0 "/></g></g></g><g fill="#004aad" fill-opacity="1"><g transform="translate(47.447897, 151.602366)"><g><path d="M 4.734375 -1.171875 C 4.773438 -1.171875 4.8125 -1.15625 4.84375 -1.125 L 5.15625 -0.796875 C 4.925781 -0.523438 4.644531 -0.3125 4.3125 -0.15625 C 3.976562 -0.0078125 3.570312 0.0625 3.09375 0.0625 C 2.6875 0.0625 2.316406 -0.00390625 1.984375 -0.140625 C 1.648438 -0.285156 1.363281 -0.484375 1.125 -0.734375 C 0.882812 -0.992188 0.695312 -1.300781 0.5625 -1.65625 C 0.4375 -2.019531 0.375 -2.421875 0.375 -2.859375 C 0.375 -3.285156 0.441406 -3.675781 0.578125 -4.03125 C 0.710938 -4.394531 0.898438 -4.703125 1.140625 -4.953125 C 1.390625 -5.210938 1.6875 -5.414062 2.03125 -5.5625 C 2.375 -5.707031 2.753906 -5.78125 3.171875 -5.78125 C 3.578125 -5.78125 3.9375 -5.710938 4.25 -5.578125 C 4.5625 -5.453125 4.832031 -5.273438 5.0625 -5.046875 L 4.8125 -4.6875 C 4.800781 -4.664062 4.78125 -4.644531 4.75 -4.625 C 4.726562 -4.613281 4.695312 -4.609375 4.65625 -4.609375 C 4.601562 -4.609375 4.539062 -4.628906 4.46875 -4.671875 C 4.40625 -4.722656 4.316406 -4.78125 4.203125 -4.84375 C 4.085938 -4.914062 3.945312 -4.976562 3.78125 -5.03125 C 3.613281 -5.082031 3.410156 -5.109375 3.171875 -5.109375 C 2.867188 -5.109375 2.597656 -5.054688 2.359375 -4.953125 C 2.117188 -4.847656 1.910156 -4.695312 1.734375 -4.5 C 1.554688 -4.3125 1.414062 -4.078125 1.3125 -3.796875 C 1.21875 -3.515625 1.171875 -3.203125 1.171875 -2.859375 C 1.171875 -2.492188 1.21875 -2.171875 1.3125 -1.890625 C 1.414062 -1.617188 1.554688 -1.382812 1.734375 -1.1875 C 1.910156 -1 2.117188 -0.851562 2.359375 -0.75 C 2.597656 -0.65625 2.859375 -0.609375 3.140625 -0.609375 C 3.316406 -0.609375 3.472656 -0.613281 3.609375 -0.625 C 3.742188 -0.644531 3.867188 -0.675781 3.984375 -0.71875 C 4.097656 -0.757812 4.203125 -0.8125 4.296875 -0.875 C 4.398438 -0.945312 4.503906 -1.03125 4.609375 -1.125 C 4.648438 -1.15625 4.691406 -1.171875 4.734375 -1.171875 Z M 4.734375 -1.171875 "/></g></g></g><g fill="#004aad" fill-opacity="1"><g transform="translate(59.154803, 151.602366)"><g><path d="M 5.359375 -5.703125 L 5.359375 0 L 4.578125 0 L 4.578125 -2.59375 L 1.5 -2.59375 L 1.5 0 L 0.734375 0 L 0.734375 -5.703125 L 1.5 -5.703125 L 1.5 -3.15625 L 4.578125 -3.15625 L 4.578125 -5.703125 Z M 5.359375 -5.703125 "/></g></g></g><g fill="#004aad" fill-opacity="1"><g transform="translate(71.623301, 151.602366)"><g><path d="M 6 -2.859375 C 6 -2.429688 5.929688 -2.035156 5.796875 -1.671875 C 5.660156 -1.316406 5.46875 -1.007812 5.21875 -0.75 C 4.976562 -0.488281 4.679688 -0.285156 4.328125 -0.140625 C 3.984375 -0.00390625 3.601562 0.0625 3.1875 0.0625 C 2.769531 0.0625 2.382812 -0.00390625 2.03125 -0.140625 C 1.6875 -0.285156 1.390625 -0.488281 1.140625 -0.75 C 0.898438 -1.007812 0.710938 -1.316406 0.578125 -1.671875 C 0.441406 -2.035156 0.375 -2.429688 0.375 -2.859375 C 0.375 -3.285156 0.441406 -3.675781 0.578125 -4.03125 C 0.710938 -4.382812 0.898438 -4.691406 1.140625 -4.953125 C 1.390625 -5.210938 1.6875 -5.414062 2.03125 -5.5625 C 2.382812 -5.707031 2.769531 -5.78125 3.1875 -5.78125 C 3.601562 -5.78125 3.984375 -5.707031 4.328125 -5.5625 C 4.679688 -5.414062 4.976562 -5.210938 5.21875 -4.953125 C 5.46875 -4.691406 5.660156 -4.382812 5.796875 -4.03125 C 5.929688 -3.675781 6 -3.285156 6 -2.859375 Z M 5.21875 -2.859375 C 5.21875 -3.203125 5.164062 -3.515625 5.0625 -3.796875 C 4.96875 -4.078125 4.832031 -4.3125 4.65625 -4.5 C 4.488281 -4.695312 4.28125 -4.847656 4.03125 -4.953125 C 3.78125 -5.054688 3.5 -5.109375 3.1875 -5.109375 C 2.882812 -5.109375 2.609375 -5.054688 2.359375 -4.953125 C 2.109375 -4.847656 1.894531 -4.695312 1.71875 -4.5 C 1.539062 -4.3125 1.398438 -4.078125 1.296875 -3.796875 C 1.203125 -3.515625 1.15625 -3.203125 1.15625 -2.859375 C 1.15625 -2.503906 1.203125 -2.1875 1.296875 -1.90625 C 1.398438 -1.632812 1.539062 -1.398438 1.71875 -1.203125 C 1.894531 -1.015625 2.109375 -0.867188 2.359375 -0.765625 C 2.609375 -0.660156 2.882812 -0.609375 3.1875 -0.609375 C 3.5 -0.609375 3.78125 -0.660156 4.03125 -0.765625 C 4.28125 -0.867188 4.488281 -1.015625 4.65625 -1.203125 C 4.832031 -1.398438 4.96875 -1.632812 5.0625 -1.90625 C 5.164062 -2.1875 5.21875 -2.503906 5.21875 -2.859375 Z M 5.21875 -2.859375 "/></g></g></g><g fill="#004aad" fill-opacity="1"><g transform="translate(84.386865, 151.602366)"><g><path d="M 6 -2.859375 C 6 -2.429688 5.929688 -2.035156 5.796875 -1.671875 C 5.660156 -1.316406 5.46875 -1.007812 5.21875 -0.75 C 4.976562 -0.488281 4.679688 -0.285156 4.328125 -0.140625 C 3.984375 -0.00390625 3.601562 0.0625 3.1875 0.0625 C 2.769531 0.0625 2.382812 -0.00390625 2.03125 -0.140625 C 1.6875 -0.285156 1.390625 -0.488281 1.140625 -0.75 C 0.898438 -1.007812 0.710938 -1.316406 0.578125 -1.671875 C 0.441406 -2.035156 0.375 -2.429688 0.375 -2.859375 C 0.375 -3.285156 0.441406 -3.675781 0.578125 -4.03125 C 0.710938 -4.382812 0.898438 -4.691406 1.140625 -4.953125 C 1.390625 -5.210938 1.6875 -5.414062 2.03125 -5.5625 C 2.382812 -5.707031 2.769531 -5.78125 3.1875 -5.78125 C 3.601562 -5.78125 3.984375 -5.707031 4.328125 -5.5625 C 4.679688 -5.414062 4.976562 -5.210938 5.21875 -4.953125 C 5.46875 -4.691406 5.660156 -4.382812 5.796875 -4.03125 C 5.929688 -3.675781 6 -3.285156 6 -2.859375 Z M 5.21875 -2.859375 C 5.21875 -3.203125 5.164062 -3.515625 5.0625 -3.796875 C 4.96875 -4.078125 4.832031 -4.3125 4.65625 -4.5 C 4.488281 -4.695312 4.28125 -4.847656 4.03125 -4.953125 C 3.78125 -5.054688 3.5 -5.109375 3.1875 -5.109375 C 2.882812 -5.109375 2.609375 -5.054688 2.359375 -4.953125 C 2.109375 -4.847656 1.894531 -4.695312 1.71875 -4.5 C 1.539062 -4.3125 1.398438 -4.078125 1.296875 -3.796875 C 1.203125 -3.515625 1.15625 -3.203125 1.15625 -2.859375 C 1.15625 -2.503906 1.203125 -2.1875 1.296875 -1.90625 C 1.398438 -1.632812 1.539062 -1.398438 1.71875 -1.203125 C 1.894531 -1.015625 2.109375 -0.867188 2.359375 -0.765625 C 2.609375 -0.660156 2.882812 -0.609375 3.1875 -0.609375 C 3.5 -0.609375 3.78125 -0.660156 4.03125 -0.765625 C 4.28125 -0.867188 4.488281 -1.015625 4.65625 -1.203125 C 4.832031 -1.398438 4.96875 -1.632812 5.0625 -1.90625 C 5.164062 -2.1875 5.21875 -2.503906 5.21875 -2.859375 Z M 5.21875 -2.859375 "/></g></g></g><g fill="#004aad" fill-opacity="1"><g transform="translate(97.150425, 151.602366)"><g><path d="M 3.65625 -4.8125 C 3.625 -4.769531 3.59375 -4.738281 3.5625 -4.71875 C 3.539062 -4.707031 3.507812 -4.703125 3.46875 -4.703125 C 3.425781 -4.703125 3.375 -4.722656 3.3125 -4.765625 C 3.25 -4.804688 3.171875 -4.851562 3.078125 -4.90625 C 2.984375 -4.96875 2.875 -5.019531 2.75 -5.0625 C 2.625 -5.101562 2.46875 -5.125 2.28125 -5.125 C 2.113281 -5.125 1.960938 -5.101562 1.828125 -5.0625 C 1.691406 -5.019531 1.578125 -4.957031 1.484375 -4.875 C 1.398438 -4.789062 1.335938 -4.695312 1.296875 -4.59375 C 1.253906 -4.488281 1.234375 -4.375 1.234375 -4.25 C 1.234375 -4.082031 1.269531 -3.945312 1.34375 -3.84375 C 1.425781 -3.738281 1.53125 -3.648438 1.65625 -3.578125 C 1.78125 -3.503906 1.925781 -3.4375 2.09375 -3.375 C 2.257812 -3.320312 2.425781 -3.265625 2.59375 -3.203125 C 2.769531 -3.148438 2.9375 -3.085938 3.09375 -3.015625 C 3.257812 -2.941406 3.40625 -2.847656 3.53125 -2.734375 C 3.664062 -2.628906 3.769531 -2.492188 3.84375 -2.328125 C 3.925781 -2.171875 3.96875 -1.972656 3.96875 -1.734375 C 3.96875 -1.484375 3.921875 -1.25 3.828125 -1.03125 C 3.742188 -0.8125 3.617188 -0.617188 3.453125 -0.453125 C 3.296875 -0.296875 3.097656 -0.171875 2.859375 -0.078125 C 2.617188 0.015625 2.347656 0.0625 2.046875 0.0625 C 1.679688 0.0625 1.34375 -0.00390625 1.03125 -0.140625 C 0.726562 -0.273438 0.472656 -0.457031 0.265625 -0.6875 L 0.484375 -1.046875 C 0.503906 -1.078125 0.53125 -1.101562 0.5625 -1.125 C 0.59375 -1.144531 0.628906 -1.15625 0.671875 -1.15625 C 0.703125 -1.15625 0.738281 -1.140625 0.78125 -1.109375 C 0.820312 -1.078125 0.867188 -1.039062 0.921875 -1 C 0.984375 -0.957031 1.050781 -0.910156 1.125 -0.859375 C 1.195312 -0.804688 1.273438 -0.757812 1.359375 -0.71875 C 1.453125 -0.675781 1.554688 -0.640625 1.671875 -0.609375 C 1.796875 -0.585938 1.929688 -0.578125 2.078125 -0.578125 C 2.253906 -0.578125 2.414062 -0.601562 2.5625 -0.65625 C 2.707031 -0.707031 2.828125 -0.773438 2.921875 -0.859375 C 3.023438 -0.953125 3.101562 -1.0625 3.15625 -1.1875 C 3.207031 -1.320312 3.234375 -1.46875 3.234375 -1.625 C 3.234375 -1.789062 3.191406 -1.929688 3.109375 -2.046875 C 3.035156 -2.160156 2.9375 -2.253906 2.8125 -2.328125 C 2.6875 -2.398438 2.539062 -2.460938 2.375 -2.515625 C 2.207031 -2.566406 2.039062 -2.617188 1.875 -2.671875 C 1.707031 -2.722656 1.539062 -2.785156 1.375 -2.859375 C 1.207031 -2.929688 1.054688 -3.023438 0.921875 -3.140625 C 0.796875 -3.253906 0.691406 -3.394531 0.609375 -3.5625 C 0.535156 -3.738281 0.5 -3.953125 0.5 -4.203125 C 0.5 -4.398438 0.535156 -4.59375 0.609375 -4.78125 C 0.691406 -4.976562 0.804688 -5.148438 0.953125 -5.296875 C 1.109375 -5.441406 1.296875 -5.554688 1.515625 -5.640625 C 1.734375 -5.734375 1.988281 -5.78125 2.28125 -5.78125 C 2.59375 -5.78125 2.878906 -5.726562 3.140625 -5.625 C 3.398438 -5.519531 3.632812 -5.375 3.84375 -5.1875 Z M 3.65625 -4.8125 "/></g></g></g><g fill="#004aad" fill-opacity="1"><g transform="translate(107.856496, 151.602366)"><g><path d="M 4.25 -0.625 L 4.25 0 L 0.734375 0 L 0.734375 -5.703125 L 4.25 -5.703125 L 4.25 -5.078125 L 1.5 -5.078125 L 1.5 -3.1875 L 3.71875 -3.1875 L 3.71875 -2.578125 L 1.5 -2.578125 L 1.5 -0.625 Z M 4.25 -0.625 "/></g></g></g><g fill="#004aad" fill-opacity="1"><g transform="translate(118.841691, 151.602366)"><g/></g></g><g fill="#004aad" fill-opacity="1"><g transform="translate(127.262995, 151.602366)"><g><path d="M 3.765625 -2.125 L 2.859375 -4.4375 C 2.835938 -4.507812 2.8125 -4.59375 2.78125 -4.6875 C 2.75 -4.78125 2.722656 -4.878906 2.703125 -4.984375 C 2.640625 -4.765625 2.582031 -4.582031 2.53125 -4.4375 L 1.625 -2.125 Z M 5.375 0 L 4.765625 0 C 4.703125 0 4.648438 -0.015625 4.609375 -0.046875 C 4.566406 -0.0859375 4.535156 -0.132812 4.515625 -0.1875 L 3.96875 -1.5625 L 1.421875 -1.5625 L 0.875 -0.1875 C 0.863281 -0.132812 0.832031 -0.0859375 0.78125 -0.046875 C 0.738281 -0.015625 0.6875 0 0.625 0 L 0.03125 0 L 2.3125 -5.703125 L 3.09375 -5.703125 Z M 5.375 0 "/></g></g></g><g fill="#004aad" fill-opacity="1"><g transform="translate(139.041678, 151.602366)"><g/></g></g><g fill="#004aad" fill-opacity="1"><g transform="translate(147.462988, 151.602366)"><g><path d="M 4.734375 -1.171875 C 4.773438 -1.171875 4.8125 -1.15625 4.84375 -1.125 L 5.15625 -0.796875 C 4.925781 -0.523438 4.644531 -0.3125 4.3125 -0.15625 C 3.976562 -0.0078125 3.570312 0.0625 3.09375 0.0625 C 2.6875 0.0625 2.316406 -0.00390625 1.984375 -0.140625 C 1.648438 -0.285156 1.363281 -0.484375 1.125 -0.734375 C 0.882812 -0.992188 0.695312 -1.300781 0.5625 -1.65625 C 0.4375 -2.019531 0.375 -2.421875 0.375 -2.859375 C 0.375 -3.285156 0.441406 -3.675781 0.578125 -4.03125 C 0.710938 -4.394531 0.898438 -4.703125 1.140625 -4.953125 C 1.390625 -5.210938 1.6875 -5.414062 2.03125 -5.5625 C 2.375 -5.707031 2.753906 -5.78125 3.171875 -5.78125 C 3.578125 -5.78125 3.9375 -5.710938 4.25 -5.578125 C 4.5625 -5.453125 4.832031 -5.273438 5.0625 -5.046875 L 4.8125 -4.6875 C 4.800781 -4.664062 4.78125 -4.644531 4.75 -4.625 C 4.726562 -4.613281 4.695312 -4.609375 4.65625 -4.609375 C 4.601562 -4.609375 4.539062 -4.628906 4.46875 -4.671875 C 4.40625 -4.722656 4.316406 -4.78125 4.203125 -4.84375 C 4.085938 -4.914062 3.945312 -4.976562 3.78125 -5.03125 C 3.613281 -5.082031 3.410156 -5.109375 3.171875 -5.109375 C 2.867188 -5.109375 2.597656 -5.054688 2.359375 -4.953125 C 2.117188 -4.847656 1.910156 -4.695312 1.734375 -4.5 C 1.554688 -4.3125 1.414062 -4.078125 1.3125 -3.796875 C 1.21875 -3.515625 1.171875 -3.203125 1.171875 -2.859375 C 1.171875 -2.492188 1.21875 -2.171875 1.3125 -1.890625 C 1.414062 -1.617188 1.554688 -1.382812 1.734375 -1.1875 C 1.910156 -1 2.117188 -0.851562 2.359375 -0.75 C 2.597656 -0.65625 2.859375 -0.609375 3.140625 -0.609375 C 3.316406 -0.609375 3.472656 -0.613281 3.609375 -0.625 C 3.742188 -0.644531 3.867188 -0.675781 3.984375 -0.71875 C 4.097656 -0.757812 4.203125 -0.8125 4.296875 -0.875 C 4.398438 -0.945312 4.503906 -1.03125 4.609375 -1.125 C 4.648438 -1.15625 4.691406 -1.171875 4.734375 -1.171875 Z M 4.734375 -1.171875 "/></g></g></g><g fill="#004aad" fill-opacity="1"><g transform="translate(159.169897, 151.602366)"><g><path d="M 1.5 0 L 0.734375 0 L 0.734375 -5.703125 L 1.5 -5.703125 Z M 1.5 0 "/></g></g></g><g fill="#004aad" fill-opacity="1"><g transform="translate(167.782607, 151.602366)"><g><path d="M 4.59375 -5.0625 L 2.734375 -5.0625 L 2.734375 0 L 1.96875 0 L 1.96875 -5.0625 L 0.125 -5.0625 L 0.125 -5.703125 L 4.59375 -5.703125 Z M 4.59375 -5.0625 "/></g></g></g><g fill="#004aad" fill-opacity="1"><g transform="translate(178.871471, 151.602366)"><g><path d="M 2.875 -2.28125 L 2.875 0 L 2.09375 0 L 2.09375 -2.28125 L 0.015625 -5.703125 L 0.6875 -5.703125 C 0.75 -5.703125 0.800781 -5.6875 0.84375 -5.65625 C 0.882812 -5.625 0.921875 -5.582031 0.953125 -5.53125 L 2.265625 -3.3125 C 2.304688 -3.21875 2.347656 -3.128906 2.390625 -3.046875 C 2.429688 -2.960938 2.46875 -2.882812 2.5 -2.8125 C 2.519531 -2.882812 2.550781 -2.960938 2.59375 -3.046875 C 2.632812 -3.128906 2.675781 -3.21875 2.71875 -3.3125 L 4.015625 -5.53125 C 4.046875 -5.570312 4.082031 -5.609375 4.125 -5.640625 C 4.164062 -5.679688 4.21875 -5.703125 4.28125 -5.703125 L 4.96875 -5.703125 Z M 2.875 -2.28125 "/></g></g></g></svg>